<svg xmlns="http://www.w3.org/2000/svg" xmlns:xlink="http://www.w3.org/1999/xlink" width="500" zoomAndPan="magnify" viewBox="0 0 375 374.999991" height="500" preserveAspectRatio="xMidYMid meet" version="1.0"><defs><g/><clipPath id="649e88189d"><path d="M 57.65625 57.78125 L 317.34375 57.78125 L 317.34375 317.21875 L 57.65625 317.21875 Z M 57.65625 57.78125 " clip-rule="nonzero"/></clipPath><clipPath id="ee17ab6aba"><path d="M 187.5 57.78125 C 115.789062 57.78125 57.65625 115.859375 57.65625 187.5 C 57.65625 259.140625 115.789062 317.21875 187.5 317.21875 C 259.210938 317.21875 317.34375 259.140625 317.34375 187.5 C 317.34375 115.859375 259.210938 57.78125 187.5 57.78125 " clip-rule="nonzero"/></clipPath><clipPath id="be5ee14a9f"><path d="M 64.214844 64.335938 L 310.785156 64.335938 L 310.785156 310.664062 L 64.214844 310.664062 Z M 64.214844 64.335938 " clip-rule="nonzero"/></clipPath><clipPath id="192959883b"><path d="M 187.5 64.335938 C 119.410156 64.335938 64.214844 119.476562 64.214844 187.5 C 64.214844 255.523438 119.410156 310.664062 187.5 310.664062 C 255.589844 310.664062 310.785156 255.523438 310.785156 187.5 C 310.785156 119.476562 255.589844 64.335938 187.5 64.335938 " clip-rule="nonzero"/></clipPath><clipPath id="64789a7cbf"><path d="M 68.75 187.5 L 306.5 187.5 L 306.5 306 L 68.75 306 Z M 68.75 187.5 " clip-rule="nonzero"/></clipPath><clipPath id="5101a63006"><path d="M 68.492188 68.996094 L 306.242188 68.996094 L 306.242188 187.496094 L 68.492188 187.496094 Z M 68.492188 68.996094 " clip-rule="nonzero"/></clipPath><clipPath id="d54bcb5be6"><path d="M 67.335938 166.785156 L 307.664062 166.785156 L 307.664062 208.214844 L 67.335938 208.214844 Z M 67.335938 166.785156 " clip-rule="nonzero"/></clipPath><clipPath id="2cc54eaa4f"><path d="M 62.863281 174.65625 L 312 174.65625 L 312 200.34375 L 62.863281 200.34375 Z M 62.863281 174.65625 " clip-rule="nonzero"/></clipPath><clipPath id="a1a55384c6"><path d="M 111.25 111.324219 L 263.75 111.324219 L 263.75 263.675781 L 111.25 263.675781 Z M 111.25 111.324219 " clip-rule="nonzero"/></clipPath><clipPath id="3784f4b3d1"><path d="M 187.5 111.324219 C 145.386719 111.324219 111.25 145.429688 111.25 187.5 C 111.25 229.570312 145.386719 263.675781 187.5 263.675781 C 229.613281 263.675781 263.75 229.570312 263.75 187.5 C 263.75 145.429688 229.613281 111.324219 187.5 111.324219 " clip-rule="nonzero"/></clipPath><clipPath id="a209227d13"><path d="M 122.289062 123.789062 L 252 123.789062 L 252 188.289062 L 122.289062 188.289062 Z M 122.289062 123.789062 " clip-rule="nonzero"/></clipPath><clipPath id="2f1cbea37d"><path d="M 123 186.703125 L 252.707031 186.703125 L 252.707031 251.203125 L 123 251.203125 Z M 123 186.703125 " clip-rule="nonzero"/></clipPath></defs><rect x="-37.5" width="450" fill="#ffffff" y="-37.499999" height="449.999989" fill-opacity="1"/><rect x="-37.5" width="450" fill="#ffffff" y="-37.499999" height="449.999989" fill-opacity="1"/><rect x="-37.5" width="450" fill="#ffffff" y="-37.499999" height="449.999989" fill-opacity="1"/><g clip-path="url(#649e88189d)"><g clip-path="url(#ee17ab6aba)"><path fill="#00538d" d="M 57.65625 57.78125 L 317.34375 57.78125 L 317.34375 317.21875 L 57.65625 317.21875 Z M 57.65625 57.78125 " fill-opacity="1" fill-rule="nonzero"/></g></g><g clip-path="url(#be5ee14a9f)"><g clip-path="url(#192959883b)"><path fill="#fff3e1" d="M 64.214844 64.335938 L 310.785156 64.335938 L 310.785156 310.664062 L 64.214844 310.664062 Z M 64.214844 64.335938 " fill-opacity="1" fill-rule="nonzero"/></g></g><g clip-path="url(#64789a7cbf)"><path fill="#0195ff" d="M 306.398438 187.5 C 306.398438 252.957031 253.1875 306 187.523438 306 C 121.863281 306 68.851562 252.957031 68.851562 187.5 Z M 306.398438 187.5 " fill-opacity="1" fill-rule="nonzero"/></g><g clip-path="url(#5101a63006)"><path fill="#006bb6" d="M 68.59375 187.496094 C 68.59375 122.042969 121.804688 68.996094 187.46875 68.996094 C 253.128906 68.996094 306.140625 122.042969 306.140625 187.496094 Z M 68.59375 187.496094 " fill-opacity="1" fill-rule="nonzero"/></g><g clip-path="url(#d54bcb5be6)"><path fill="#fff3e1" d="M 67.335938 166.785156 L 307.320312 166.785156 L 307.320312 208.070312 L 67.335938 208.070312 Z M 67.335938 166.785156 " fill-opacity="1" fill-rule="nonzero"/></g><g clip-path="url(#2cc54eaa4f)"><path fill="#00538d" d="M 62.863281 174.65625 L 311.878906 174.65625 L 311.878906 200.460938 L 62.863281 200.460938 Z M 62.863281 174.65625 " fill-opacity="1" fill-rule="nonzero"/></g><g fill="#fff3e1" fill-opacity="1"><g transform="translate(120.738841, 128.697573)"><g><path d="M 2.0625 -26.53125 L 14.34375 -13.09375 L 10.609375 -9.703125 L -0.0625 -11.140625 L 5.515625 -5.03125 L 1.09375 -1 L -11.1875 -14.4375 L -7.453125 -17.84375 L 3.21875 -16.40625 L -2.359375 -22.5 Z M 2.0625 -26.53125 "/></g></g></g><g fill="#fff3e1" fill-opacity="1"><g transform="translate(134.872133, 115.775603)"><g><path d="M 11.828125 -12.53125 L 14.21875 -8.578125 L 1.265625 -0.765625 L -8.140625 -16.34375 L 4.53125 -24 L 6.921875 -20.046875 L -0.578125 -15.515625 L 0.53125 -13.6875 L 7.109375 -17.65625 L 9.390625 -13.859375 L 2.8125 -9.890625 L 4.046875 -7.84375 Z M 11.828125 -12.53125 "/></g></g></g><g fill="#fff3e1" fill-opacity="1"><g transform="translate(147.518551, 106.81926)"><g><path d="M 24.53125 -26.40625 L 24.1875 -7.28125 L 17.890625 -5.390625 L 12.28125 -13.859375 L 12.125 -3.640625 L 5.8125 -1.75 L -5 -17.515625 L 1.046875 -19.328125 L 7.078125 -10.34375 L 7.296875 -21.21875 L 12.703125 -22.84375 L 18.765625 -13.703125 L 18.9375 -24.71875 Z M 24.53125 -26.40625 "/></g></g></g><g fill="#fff3e1" fill-opacity="1"><g transform="translate(176.020568, 99.280879)"><g/></g></g><g fill="#fff3e1" fill-opacity="1"><g transform="translate(182.455074, 98.10988)"><g><path d="M 20.40625 -17.09375 L 19.390625 1.078125 L 13.265625 0.734375 L 13.640625 -5.953125 L 7.984375 -6.265625 L 7.609375 0.421875 L 1.484375 0.078125 L 2.5 -18.09375 L 8.625 -17.75 L 8.265625 -11.3125 L 13.921875 -11 L 14.28125 -17.4375 Z M 20.40625 -17.09375 "/></g></g></g><g fill="#fff3e1" fill-opacity="1"><g transform="translate(201.428914, 98.896938)"><g><path d="M 10.5 3.421875 C 8.613281 2.878906 7.03125 2 5.75 0.78125 C 4.46875 -0.425781 3.597656 -1.847656 3.140625 -3.484375 C 2.679688 -5.117188 2.703125 -6.804688 3.203125 -8.546875 C 3.703125 -10.296875 4.570312 -11.75 5.8125 -12.90625 C 7.0625 -14.0625 8.546875 -14.816406 10.265625 -15.171875 C 11.992188 -15.523438 13.800781 -15.429688 15.6875 -14.890625 C 17.570312 -14.359375 19.148438 -13.488281 20.421875 -12.28125 C 21.703125 -11.070312 22.570312 -9.648438 23.03125 -8.015625 C 23.488281 -6.378906 23.46875 -4.6875 22.96875 -2.9375 C 22.46875 -1.195312 21.59375 0.25 20.34375 1.40625 C 19.101562 2.5625 17.625 3.316406 15.90625 3.671875 C 14.1875 4.035156 12.382812 3.953125 10.5 3.421875 Z M 11.84375 -1.359375 C 12.570312 -1.148438 13.285156 -1.140625 13.984375 -1.328125 C 14.679688 -1.523438 15.296875 -1.898438 15.828125 -2.453125 C 16.367188 -3.015625 16.765625 -3.738281 17.015625 -4.625 C 17.265625 -5.519531 17.304688 -6.34375 17.140625 -7.09375 C 16.984375 -7.851562 16.660156 -8.492188 16.171875 -9.015625 C 15.679688 -9.546875 15.070312 -9.914062 14.34375 -10.125 C 13.601562 -10.34375 12.882812 -10.351562 12.1875 -10.15625 C 11.488281 -9.96875 10.867188 -9.59375 10.328125 -9.03125 C 9.796875 -8.476562 9.40625 -7.753906 9.15625 -6.859375 C 8.90625 -5.972656 8.859375 -5.148438 9.015625 -4.390625 C 9.179688 -3.640625 9.507812 -3 10 -2.46875 C 10.488281 -1.945312 11.101562 -1.578125 11.84375 -1.359375 Z M 11.84375 -1.359375 "/></g></g></g><g fill="#fff3e1" fill-opacity="1"><g transform="translate(220.851046, 104.350569)"><g><path d="M 17.59375 -11.265625 C 19.070312 -10.472656 20.234375 -9.535156 21.078125 -8.453125 C 21.921875 -7.378906 22.394531 -6.222656 22.5 -4.984375 C 22.601562 -3.753906 22.332031 -2.53125 21.6875 -1.3125 C 21.03125 -0.0820312 20.160156 0.828125 19.078125 1.421875 C 18.003906 2.023438 16.78125 2.28125 15.40625 2.1875 C 14.039062 2.09375 12.617188 1.648438 11.140625 0.859375 L 8.828125 -0.375 L 6.734375 3.578125 L 1.3125 0.703125 L 9.859375 -15.375 Z M 13.03125 -3.5 C 13.769531 -3.101562 14.40625 -2.972656 14.9375 -3.109375 C 15.476562 -3.253906 15.910156 -3.625 16.234375 -4.21875 C 16.546875 -4.8125 16.609375 -5.367188 16.421875 -5.890625 C 16.234375 -6.410156 15.769531 -6.867188 15.03125 -7.265625 L 13.0625 -8.3125 L 11.0625 -4.546875 Z M 13.03125 -3.5 "/></g></g></g><g fill="#fff3e1" fill-opacity="1"><g transform="translate(236.458591, 112.566927)"><g><path d="M 15.84375 6.8125 L 12.9375 10.421875 L 1.15625 0.9375 L 12.5625 -13.25 L 24.09375 -3.984375 L 21.203125 -0.375 L 14.375 -5.859375 L 13.03125 -4.1875 L 19.015625 0.625 L 16.25 4.0625 L 10.265625 -0.75 L 8.765625 1.109375 Z M 15.84375 6.8125 "/></g></g></g><g fill="#fff3e1" fill-opacity="1"><g transform="translate(249.011155, 122.97374)"><g/></g></g><g fill="#001f36" fill-opacity="1"><g transform="translate(114.318571, 260.94493)"><g><path d="M 6.15625 5.65625 C 5.082031 4.71875 4.3125 3.632812 3.84375 2.40625 C 3.382812 1.1875 3.265625 -0.0507812 3.484375 -1.3125 C 3.703125 -2.570312 4.269531 -3.722656 5.1875 -4.765625 C 6.09375 -5.816406 7.15625 -6.539062 8.375 -6.9375 C 9.59375 -7.332031 10.835938 -7.382812 12.109375 -7.09375 C 13.390625 -6.8125 14.570312 -6.203125 15.65625 -5.265625 C 16.570312 -4.460938 17.257812 -3.578125 17.71875 -2.609375 C 18.175781 -1.648438 18.398438 -0.65625 18.390625 0.375 L 15.5625 0.46875 C 15.5625 -0.976562 15.035156 -2.160156 13.984375 -3.078125 C 13.328125 -3.648438 12.617188 -4.015625 11.859375 -4.171875 C 11.097656 -4.328125 10.347656 -4.269531 9.609375 -4 C 8.867188 -3.738281 8.21875 -3.28125 7.65625 -2.625 C 7.082031 -1.976562 6.71875 -1.269531 6.5625 -0.5 C 6.40625 0.257812 6.457031 1.003906 6.71875 1.734375 C 6.976562 2.460938 7.4375 3.113281 8.09375 3.6875 C 9.144531 4.601562 10.398438 4.957031 11.859375 4.75 L 12.171875 7.546875 C 11.128906 7.722656 10.097656 7.648438 9.078125 7.328125 C 8.054688 7.003906 7.082031 6.445312 6.15625 5.65625 Z M 6.15625 5.65625 "/></g></g></g><g fill="#001f36" fill-opacity="1"><g transform="translate(127.972692, 272.455552)"><g><path d="M 10.875 3.015625 L 5.296875 -0.328125 L 2.6875 1.609375 L -0.15625 -0.09375 L 12.40625 -8.890625 L 15.15625 -7.234375 L 13.3125 7.984375 L 10.40625 6.234375 Z M 11.25 0.390625 L 12.109375 -5.359375 L 7.453125 -1.890625 Z M 11.25 0.390625 "/></g></g></g><g fill="#001f36" fill-opacity="1"><g transform="translate(144.008614, 281.711338)"><g><path d="M 9.875 3.78125 L 8.75 -0.828125 L 8.59375 -0.875 L 5.96875 -1.890625 L 4.578125 1.75 L 1.546875 0.59375 L 6.546875 -12.484375 L 12.203125 -10.3125 C 13.367188 -9.875 14.300781 -9.296875 15 -8.578125 C 15.707031 -7.867188 16.15625 -7.070312 16.34375 -6.1875 C 16.539062 -5.300781 16.453125 -4.367188 16.078125 -3.390625 C 15.703125 -2.421875 15.144531 -1.671875 14.40625 -1.140625 C 13.675781 -0.617188 12.8125 -0.335938 11.8125 -0.296875 L 13.140625 5.03125 Z M 13.015625 -4.5625 C 13.296875 -5.289062 13.273438 -5.941406 12.953125 -6.515625 C 12.628906 -7.097656 12.015625 -7.5625 11.109375 -7.90625 L 8.640625 -8.859375 L 6.890625 -4.3125 L 9.359375 -3.359375 C 10.265625 -3.015625 11.03125 -2.945312 11.65625 -3.15625 C 12.289062 -3.375 12.742188 -3.84375 13.015625 -4.5625 Z M 13.015625 -4.5625 "/></g></g></g><g fill="#001f36" fill-opacity="1"><g transform="translate(160.763836, 287.789592)"><g><path d="M 12.765625 -0.0625 L 12.25 2.484375 L 1.625 0.328125 L 4.421875 -13.390625 L 14.78125 -11.28125 L 14.25 -8.734375 L 7.046875 -10.203125 L 6.453125 -7.21875 L 12.8125 -5.921875 L 12.3125 -3.453125 L 5.953125 -4.75 L 5.296875 -1.578125 Z M 12.765625 -0.0625 "/></g></g></g><g fill="#001f36" fill-opacity="1"><g transform="translate(177.047006, 290.914867)"><g><path d="M 11.359375 -6.859375 L 14.3125 -6.765625 L 14.125 -1.09375 C 13.34375 -0.539062 12.445312 -0.128906 11.4375 0.140625 C 10.4375 0.410156 9.429688 0.53125 8.421875 0.5 C 6.960938 0.457031 5.660156 0.109375 4.515625 -0.546875 C 3.378906 -1.203125 2.5 -2.085938 1.875 -3.203125 C 1.25 -4.328125 0.957031 -5.582031 1 -6.96875 C 1.050781 -8.351562 1.421875 -9.582031 2.109375 -10.65625 C 2.804688 -11.738281 3.75 -12.570312 4.9375 -13.15625 C 6.132812 -13.738281 7.46875 -14.007812 8.9375 -13.96875 C 10.15625 -13.925781 11.257812 -13.679688 12.25 -13.234375 C 13.238281 -12.796875 14.0625 -12.171875 14.71875 -11.359375 L 12.578125 -9.515625 C 11.617188 -10.597656 10.429688 -11.160156 9.015625 -11.203125 C 8.117188 -11.234375 7.316406 -11.070312 6.609375 -10.71875 C 5.898438 -10.363281 5.34375 -9.851562 4.9375 -9.1875 C 4.53125 -8.519531 4.3125 -7.75 4.28125 -6.875 C 4.257812 -6.007812 4.429688 -5.226562 4.796875 -4.53125 C 5.160156 -3.832031 5.675781 -3.28125 6.34375 -2.875 C 7.019531 -2.476562 7.796875 -2.265625 8.671875 -2.234375 C 9.609375 -2.203125 10.457031 -2.378906 11.21875 -2.765625 Z M 11.359375 -6.859375 "/></g></g></g><g fill="#001f36" fill-opacity="1"><g transform="translate(195.355843, 291.014923)"><g><path d="M 0.21875 -14.09375 L 3.453125 -14.421875 L 4.875 -0.5 L 1.640625 -0.171875 Z M 0.21875 -14.09375 "/></g></g></g><g fill="#001f36" fill-opacity="1"><g transform="translate(204.781472, 290.141634)"><g><path d="M 11.5 -17.109375 L 8.8125 -2.078125 L 5.703125 -1.34375 L -3.40625 -13.578125 L 0 -14.390625 L 6.453125 -5.625 L 8.375 -16.359375 Z M 11.5 -17.109375 "/></g></g></g><g fill="#001f36" fill-opacity="1"><g transform="translate(222.272135, 285.678738)"><g><path d="M 10.53125 -7.234375 L 11.53125 -4.84375 L 1.53125 -0.640625 L -3.890625 -13.546875 L 5.859375 -17.640625 L 6.859375 -15.25 L 0.078125 -12.40625 L 1.265625 -9.59375 L 7.25 -12.109375 L 8.21875 -9.796875 L 2.234375 -7.28125 L 3.5 -4.28125 Z M 10.53125 -7.234375 "/></g></g></g><g fill="#001f36" fill-opacity="1"><g transform="translate(237.449423, 279.075537)"><g><path d="M 8.953125 -5.640625 L 4.578125 -7.5 L 4.453125 -7.421875 L 2.078125 -5.921875 L 4.15625 -2.625 L 1.40625 -0.890625 L -6.0625 -12.734375 L -0.9375 -15.96875 C 0.101562 -16.625 1.117188 -17.019531 2.109375 -17.15625 C 3.097656 -17.289062 4.003906 -17.171875 4.828125 -16.796875 C 5.660156 -16.421875 6.351562 -15.789062 6.90625 -14.90625 C 7.46875 -14.019531 7.738281 -13.125 7.71875 -12.21875 C 7.695312 -11.320312 7.398438 -10.460938 6.828125 -9.640625 L 11.890625 -7.5 Z M 4.125 -13.15625 C 3.707031 -13.8125 3.171875 -14.179688 2.515625 -14.265625 C 1.867188 -14.359375 1.140625 -14.148438 0.328125 -13.640625 L -1.90625 -12.234375 L 0.703125 -8.109375 L 2.9375 -9.515625 C 3.75 -10.023438 4.253906 -10.59375 4.453125 -11.21875 C 4.648438 -11.851562 4.539062 -12.5 4.125 -13.15625 Z M 4.125 -13.15625 "/></g></g></g><g fill="#001f36" fill-opacity="1"><g transform="translate(252.325518, 269.305674)"><g><path d="M 4.84375 -3.984375 C 4.007812 -3.242188 3.109375 -2.640625 2.140625 -2.171875 C 1.171875 -1.710938 0.296875 -1.457031 -0.484375 -1.40625 L -1.296875 -3.953125 C -0.546875 -4.023438 0.222656 -4.234375 1.015625 -4.578125 C 1.816406 -4.929688 2.523438 -5.378906 3.140625 -5.921875 C 3.828125 -6.535156 4.242188 -7.09375 4.390625 -7.59375 C 4.546875 -8.09375 4.472656 -8.507812 4.171875 -8.84375 C 3.953125 -9.09375 3.671875 -9.210938 3.328125 -9.203125 C 2.984375 -9.191406 2.613281 -9.101562 2.21875 -8.9375 C 1.832031 -8.769531 1.328125 -8.515625 0.703125 -8.171875 C -0.265625 -7.660156 -1.085938 -7.269531 -1.765625 -7 C -2.441406 -6.738281 -3.148438 -6.660156 -3.890625 -6.765625 C -4.628906 -6.867188 -5.304688 -7.265625 -5.921875 -7.953125 C -6.453125 -8.566406 -6.773438 -9.265625 -6.890625 -10.046875 C -7.003906 -10.828125 -6.851562 -11.65625 -6.4375 -12.53125 C -6.03125 -13.40625 -5.347656 -14.269531 -4.390625 -15.125 C -3.722656 -15.71875 -2.992188 -16.21875 -2.203125 -16.625 C -1.421875 -17.03125 -0.660156 -17.296875 0.078125 -17.421875 L 0.953125 -14.921875 C -0.503906 -14.609375 -1.71875 -14.023438 -2.6875 -13.171875 C -3.363281 -12.566406 -3.765625 -12.007812 -3.890625 -11.5 C -4.015625 -11 -3.921875 -10.570312 -3.609375 -10.21875 C -3.285156 -9.84375 -2.859375 -9.734375 -2.328125 -9.890625 C -1.804688 -10.054688 -1.085938 -10.394531 -0.171875 -10.90625 C 0.796875 -11.425781 1.617188 -11.8125 2.296875 -12.0625 C 2.972656 -12.320312 3.675781 -12.410156 4.40625 -12.328125 C 5.132812 -12.242188 5.804688 -11.847656 6.421875 -11.140625 C 6.953125 -10.546875 7.269531 -9.851562 7.375 -9.0625 C 7.476562 -8.269531 7.320312 -7.4375 6.90625 -6.5625 C 6.5 -5.6875 5.8125 -4.828125 4.84375 -3.984375 Z M 4.84375 -3.984375 "/></g></g></g><g fill="#fff3e1" fill-opacity="1"><g transform="translate(74.563514, 191.249987)"><g><path d="M 5.578125 -5.878906 L 5.578125 -7.5 L 0.761719 -7.5 L 0.761719 0 L 5.578125 0 L 5.578125 -1.621094 L 2.621094 -1.621094 L 2.621094 -2.9375 L 5.160156 -2.9375 L 5.160156 -4.558594 L 2.621094 -4.558594 L 2.621094 -5.878906 Z M 5.578125 -5.878906 "/></g></g></g><g fill="#fff3e1" fill-opacity="1"><g transform="translate(80.591139, 191.249987)"><g><path d="M 3.097656 0.101562 C 3.839844 0.101562 4.457031 -0.101562 4.96875 -0.511719 C 5.480469 -0.917969 5.738281 -1.46875 5.738281 -2.148438 C 5.738281 -2.589844 5.648438 -2.96875 5.480469 -3.289062 C 5.308594 -3.609375 5.097656 -3.839844 4.847656 -4 C 4.589844 -4.148438 4.320312 -4.289062 4.027344 -4.410156 C 3.730469 -4.527344 3.460938 -4.628906 3.210938 -4.699219 C 2.949219 -4.769531 2.738281 -4.867188 2.570312 -5 C 2.398438 -5.117188 2.320312 -5.277344 2.320312 -5.46875 C 2.320312 -5.648438 2.371094 -5.777344 2.488281 -5.878906 C 2.609375 -5.96875 2.757812 -6.019531 2.9375 -6.019531 C 3.328125 -6.019531 3.730469 -5.796875 4.148438 -5.367188 L 5.328125 -6.507812 C 5.027344 -6.839844 4.679688 -7.097656 4.269531 -7.296875 C 3.847656 -7.5 3.417969 -7.597656 2.960938 -7.597656 C 2.300781 -7.597656 1.730469 -7.398438 1.238281 -7.019531 C 0.75 -6.628906 0.511719 -6.070312 0.511719 -5.347656 C 0.511719 -4.867188 0.621094 -4.46875 0.859375 -4.148438 C 1.101562 -3.828125 1.378906 -3.597656 1.71875 -3.460938 C 2.050781 -3.308594 2.378906 -3.179688 2.71875 -3.078125 C 3.058594 -2.980469 3.339844 -2.859375 3.578125 -2.71875 C 3.820312 -2.578125 3.9375 -2.398438 3.9375 -2.179688 C 3.9375 -2 3.859375 -1.847656 3.71875 -1.75 C 3.578125 -1.640625 3.378906 -1.589844 3.121094 -1.589844 C 2.78125 -1.589844 2.488281 -1.667969 2.238281 -1.839844 C 1.980469 -2 1.789062 -2.230469 1.660156 -2.53125 L 0.179688 -1.597656 C 0.429688 -1.101562 0.820312 -0.699219 1.339844 -0.378906 C 1.859375 -0.0585938 2.449219 0.101562 3.097656 0.101562 Z M 3.097656 0.101562 "/></g></g></g><g fill="#fff3e1" fill-opacity="1"><g transform="translate(86.598772, 191.249987)"><g><path d="M 5.636719 -7.5 L 0.101562 -7.5 L 0.101562 -5.878906 L 1.949219 -5.878906 L 1.949219 0 L 3.800781 0 L 3.800781 -5.878906 L 5.636719 -5.878906 Z M 5.636719 -7.5 "/></g></g></g><g fill="#fff3e1" fill-opacity="1"><g transform="translate(92.336507, 191.249987)"><g><path d="M 0.699219 0 L 3.269531 0 C 4.5 0 5.449219 -0.351562 6.117188 -1.058594 C 6.777344 -1.757812 7.117188 -2.660156 7.117188 -3.75 C 7.117188 -4.828125 6.777344 -5.730469 6.117188 -6.4375 C 5.449219 -7.136719 4.5 -7.5 3.269531 -7.5 L 0.699219 -7.5 Z M 2.558594 -1.621094 L 2.558594 -5.878906 L 3.167969 -5.878906 C 3.828125 -5.878906 4.320312 -5.679688 4.660156 -5.289062 C 5 -4.890625 5.167969 -4.378906 5.167969 -3.75 C 5.167969 -3.109375 5 -2.597656 4.660156 -2.210938 C 4.320312 -1.808594 3.828125 -1.621094 3.167969 -1.621094 Z M 2.558594 -1.621094 "/></g></g></g><g fill="#fff3e1" fill-opacity="1"><g transform="translate(275.915377, 191.249987)"><g><path d="M 2.480469 -1.351562 C 3.097656 -2.007812 3.570312 -2.507812 3.867188 -2.847656 C 4.167969 -3.179688 4.4375 -3.507812 4.667969 -3.847656 C 4.898438 -4.179688 5.046875 -4.457031 5.109375 -4.6875 C 5.167969 -4.910156 5.207031 -5.179688 5.207031 -5.480469 C 5.199219 -6.097656 4.980469 -6.609375 4.539062 -7.007812 C 4.097656 -7.40625 3.558594 -7.609375 2.910156 -7.609375 C 2.210938 -7.609375 1.609375 -7.378906 1.128906 -6.9375 C 0.640625 -6.488281 0.417969 -5.929688 0.480469 -5.25 L 1.96875 -5.25 C 1.929688 -5.546875 1.988281 -5.796875 2.160156 -5.976562 C 2.328125 -6.160156 2.558594 -6.25 2.839844 -6.25 C 3.078125 -6.25 3.277344 -6.167969 3.460938 -6.027344 C 3.640625 -5.878906 3.730469 -5.648438 3.730469 -5.339844 C 3.730469 -5.117188 3.660156 -4.910156 3.539062 -4.6875 C 3.417969 -4.46875 3.140625 -4.109375 2.699219 -3.597656 C 2.257812 -3.089844 1.507812 -2.269531 0.46875 -1.140625 L 0.46875 0 L 5.347656 0 L 5.347656 -1.351562 Z M 2.480469 -1.351562 "/></g></g></g><g fill="#fff3e1" fill-opacity="1"><g transform="translate(281.673105, 191.249987)"><g><path d="M 3.230469 0.101562 C 4.078125 0.101562 4.757812 -0.238281 5.257812 -0.941406 C 5.757812 -1.640625 6.019531 -2.570312 6.019531 -3.75 C 6.019531 -4.917969 5.757812 -5.847656 5.257812 -6.546875 C 4.757812 -7.25 4.078125 -7.597656 3.230469 -7.597656 C 2.371094 -7.597656 1.679688 -7.25 1.179688 -6.558594 C 0.679688 -5.859375 0.429688 -4.929688 0.429688 -3.75 C 0.429688 -2.570312 0.679688 -1.628906 1.179688 -0.941406 C 1.679688 -0.238281 2.371094 0.101562 3.230469 0.101562 Z M 3.230469 -1.328125 C 2.847656 -1.328125 2.550781 -1.550781 2.308594 -2 C 2.070312 -2.4375 1.949219 -3.027344 1.949219 -3.75 C 1.949219 -4.46875 2.058594 -5.046875 2.300781 -5.5 C 2.539062 -5.9375 2.847656 -6.167969 3.230469 -6.167969 C 3.597656 -6.167969 3.898438 -5.9375 4.140625 -5.5 C 4.378906 -5.046875 4.5 -4.46875 4.5 -3.75 C 4.5 -3.027344 4.378906 -2.449219 4.140625 -2 C 3.898438 -1.550781 3.597656 -1.328125 3.230469 -1.328125 Z M 3.230469 -1.328125 "/></g></g></g><g fill="#fff3e1" fill-opacity="1"><g transform="translate(288.120557, 191.249987)"><g><path d="M 2.480469 -1.351562 C 3.097656 -2.007812 3.570312 -2.507812 3.867188 -2.847656 C 4.167969 -3.179688 4.4375 -3.507812 4.667969 -3.847656 C 4.898438 -4.179688 5.046875 -4.457031 5.109375 -4.6875 C 5.167969 -4.910156 5.207031 -5.179688 5.207031 -5.480469 C 5.199219 -6.097656 4.980469 -6.609375 4.539062 -7.007812 C 4.097656 -7.40625 3.558594 -7.609375 2.910156 -7.609375 C 2.210938 -7.609375 1.609375 -7.378906 1.128906 -6.9375 C 0.640625 -6.488281 0.417969 -5.929688 0.480469 -5.25 L 1.96875 -5.25 C 1.929688 -5.546875 1.988281 -5.796875 2.160156 -5.976562 C 2.328125 -6.160156 2.558594 -6.25 2.839844 -6.25 C 3.078125 -6.25 3.277344 -6.167969 3.460938 -6.027344 C 3.640625 -5.878906 3.730469 -5.648438 3.730469 -5.339844 C 3.730469 -5.117188 3.660156 -4.910156 3.539062 -4.6875 C 3.417969 -4.46875 3.140625 -4.109375 2.699219 -3.597656 C 2.257812 -3.089844 1.507812 -2.269531 0.46875 -1.140625 L 0.46875 0 L 5.347656 0 L 5.347656 -1.351562 Z M 2.480469 -1.351562 "/></g></g></g><g fill="#fff3e1" fill-opacity="1"><g transform="translate(293.878285, 191.249987)"><g><path d="M 2.480469 -1.351562 C 3.097656 -2.007812 3.570312 -2.507812 3.867188 -2.847656 C 4.167969 -3.179688 4.4375 -3.507812 4.667969 -3.847656 C 4.898438 -4.179688 5.046875 -4.457031 5.109375 -4.6875 C 5.167969 -4.910156 5.207031 -5.179688 5.207031 -5.480469 C 5.199219 -6.097656 4.980469 -6.609375 4.539062 -7.007812 C 4.097656 -7.40625 3.558594 -7.609375 2.910156 -7.609375 C 2.210938 -7.609375 1.609375 -7.378906 1.128906 -6.9375 C 0.640625 -6.488281 0.417969 -5.929688 0.480469 -5.25 L 1.96875 -5.25 C 1.929688 -5.546875 1.988281 -5.796875 2.160156 -5.976562 C 2.328125 -6.160156 2.558594 -6.25 2.839844 -6.25 C 3.078125 -6.25 3.277344 -6.167969 3.460938 -6.027344 C 3.640625 -5.878906 3.730469 -5.648438 3.730469 -5.339844 C 3.730469 -5.117188 3.660156 -4.910156 3.539062 -4.6875 C 3.417969 -4.46875 3.140625 -4.109375 2.699219 -3.597656 C 2.257812 -3.089844 1.507812 -2.269531 0.46875 -1.140625 L 0.46875 0 L 5.347656 0 L 5.347656 -1.351562 Z M 2.480469 -1.351562 "/></g></g></g><g clip-path="url(#a1a55384c6)"><g clip-path="url(#3784f4b3d1)"><path fill="#fff3e1" d="M 111.25 111.324219 L 263.75 111.324219 L 263.75 263.675781 L 111.25 263.675781 Z M 111.25 111.324219 " fill-opacity="1" fill-rule="nonzero"/></g></g><g clip-path="url(#a209227d13)"><path fill="#ffbd59" d="M 146.777344 182.351562 C 146.734375 182.609375 146.511719 182.789062 146.261719 182.789062 C 146.234375 182.789062 146.207031 182.789062 146.179688 182.78125 L 122.992188 179.121094 C 122.707031 179.078125 122.511719 178.8125 122.558594 178.527344 C 122.601562 178.246094 122.871094 178.050781 123.15625 178.097656 L 146.339844 181.757812 C 146.625 181.804688 146.824219 182.066406 146.777344 182.351562 Z M 148.042969 175.136719 L 125.796875 167.679688 C 125.523438 167.585938 125.226562 167.730469 125.136719 168.003906 C 125.042969 168.277344 125.191406 168.574219 125.464844 168.664062 L 147.710938 176.117188 C 147.765625 176.136719 147.820312 176.148438 147.878906 176.148438 C 148.097656 176.148438 148.300781 176.011719 148.375 175.792969 C 148.464844 175.523438 148.316406 175.226562 148.042969 175.136719 Z M 129.644531 158.753906 L 150.332031 169.792969 C 150.410156 169.832031 150.496094 169.855469 150.578125 169.855469 C 150.765625 169.855469 150.945312 169.753906 151.039062 169.578125 C 151.175781 169.328125 151.078125 169.011719 150.824219 168.875 L 130.132812 157.835938 C 129.878906 157.703125 129.5625 157.796875 129.425781 158.050781 C 129.292969 158.304688 129.390625 158.617188 129.644531 158.753906 Z M 135.464844 149.726562 L 154.042969 164.011719 C 154.136719 164.082031 154.25 164.117188 154.363281 164.117188 C 154.519531 164.117188 154.671875 164.046875 154.777344 163.914062 C 154.953125 163.6875 154.910156 163.363281 154.683594 163.1875 L 136.101562 148.902344 C 135.875 148.730469 135.546875 148.769531 135.367188 148.996094 C 135.191406 149.226562 135.234375 149.550781 135.464844 149.726562 Z M 158.628906 158.882812 C 158.730469 158.992188 158.871094 159.050781 159.011719 159.050781 C 159.136719 159.050781 159.265625 159.003906 159.367188 158.910156 C 159.578125 158.714844 159.59375 158.386719 159.394531 158.175781 L 143.421875 141.050781 C 143.226562 140.839844 142.894531 140.828125 142.683594 141.023438 C 142.472656 141.21875 142.457031 141.546875 142.65625 141.757812 Z M 163.980469 154.550781 C 164.078125 154.703125 164.246094 154.785156 164.414062 154.785156 C 164.511719 154.785156 164.613281 154.753906 164.703125 154.699219 C 164.941406 154.542969 165.007812 154.21875 164.851562 153.980469 L 151.925781 134.472656 C 151.765625 134.234375 151.441406 134.167969 151.199219 134.324219 C 150.960938 134.480469 150.894531 134.804688 151.050781 135.042969 Z M 169.984375 151.195312 C 170.066406 151.390625 170.257812 151.507812 170.460938 151.507812 C 170.53125 151.507812 170.601562 151.492188 170.671875 151.460938 C 170.9375 151.347656 171.054688 151.039062 170.9375 150.777344 L 161.433594 129.40625 C 161.316406 129.144531 161.011719 129.023438 160.746094 129.144531 C 160.480469 129.257812 160.363281 129.566406 160.476562 129.828125 Z M 176.453125 148.902344 C 176.511719 149.140625 176.726562 149.292969 176.957031 149.292969 C 177 149.292969 177.042969 149.289062 177.085938 149.277344 C 177.367188 149.207031 177.535156 148.925781 177.464844 148.648438 L 171.667969 126 C 171.597656 125.722656 171.316406 125.554688 171.035156 125.625 C 170.753906 125.699219 170.585938 125.980469 170.65625 126.257812 Z M 183.730469 148.144531 C 183.746094 148.144531 183.757812 148.144531 183.773438 148.144531 C 184.0625 148.121094 184.277344 147.867188 184.253906 147.582031 L 182.316406 124.292969 C 182.292969 124.007812 182.039062 123.792969 181.753906 123.816406 C 181.46875 123.839844 181.253906 124.09375 181.277344 124.378906 L 183.210938 147.667969 C 183.234375 147.941406 183.460938 148.144531 183.730469 148.144531 Z M 190.585938 148.144531 C 190.601562 148.144531 190.617188 148.144531 190.632812 148.144531 C 190.898438 148.144531 191.128906 147.941406 191.152344 147.667969 L 193.085938 124.378906 C 193.109375 124.09375 192.894531 123.839844 192.609375 123.816406 C 192.320312 123.792969 192.066406 124.007812 192.042969 124.292969 L 190.109375 147.582031 C 190.085938 147.867188 190.300781 148.121094 190.585938 148.144531 Z M 197.277344 149.28125 C 197.320312 149.292969 197.359375 149.296875 197.40625 149.296875 C 197.636719 149.296875 197.851562 149.140625 197.910156 148.90625 L 203.707031 126.257812 C 203.777344 125.980469 203.609375 125.699219 203.328125 125.625 C 203.046875 125.558594 202.765625 125.722656 202.695312 126 L 196.898438 148.648438 C 196.828125 148.925781 196.996094 149.210938 197.277344 149.28125 Z M 203.691406 151.460938 C 203.761719 151.492188 203.832031 151.503906 203.902344 151.503906 C 204.105469 151.503906 204.296875 151.386719 204.378906 151.191406 L 213.882812 129.824219 C 214 129.5625 213.882812 129.253906 213.617188 129.136719 C 213.355469 129.023438 213.046875 129.140625 212.929688 129.402344 L 203.425781 150.769531 C 203.308594 151.035156 203.425781 151.34375 203.691406 151.460938 Z M 209.660156 154.699219 C 209.75 154.757812 209.847656 154.785156 209.949219 154.785156 C 210.117188 154.785156 210.285156 154.703125 210.382812 154.550781 L 223.3125 135.042969 C 223.46875 134.804688 223.40625 134.480469 223.160156 134.324219 C 222.921875 134.167969 222.597656 134.230469 222.4375 134.472656 L 209.511719 153.980469 C 209.351562 154.21875 209.417969 154.539062 209.660156 154.699219 Z M 214.992188 158.910156 C 215.09375 159.003906 215.21875 159.050781 215.347656 159.050781 C 215.488281 159.050781 215.628906 158.992188 215.730469 158.882812 L 231.703125 141.757812 C 231.902344 141.546875 231.886719 141.21875 231.675781 141.023438 C 231.464844 140.828125 231.132812 140.839844 230.9375 141.050781 L 214.964844 158.175781 C 214.769531 158.386719 214.785156 158.714844 214.992188 158.910156 Z M 219.589844 163.914062 C 219.691406 164.046875 219.847656 164.117188 220.003906 164.117188 C 220.113281 164.117188 220.226562 164.082031 220.324219 164.011719 L 238.902344 149.726562 C 239.128906 149.550781 239.171875 149.226562 238.996094 148.996094 C 238.820312 148.769531 238.492188 148.726562 238.261719 148.902344 L 219.683594 163.1875 C 219.453125 163.363281 219.410156 163.6875 219.589844 163.914062 Z M 223.320312 169.578125 C 223.417969 169.753906 223.597656 169.855469 223.78125 169.855469 C 223.863281 169.855469 223.949219 169.832031 224.027344 169.792969 L 244.71875 158.753906 C 244.972656 158.617188 245.066406 158.304688 244.933594 158.050781 C 244.796875 157.800781 244.480469 157.703125 244.222656 157.835938 L 223.535156 168.875 C 223.28125 169.011719 223.183594 169.328125 223.320312 169.578125 Z M 249.226562 168.003906 C 249.132812 167.730469 248.839844 167.585938 248.5625 167.679688 L 226.320312 175.136719 C 226.042969 175.226562 225.898438 175.519531 225.992188 175.792969 C 226.0625 176.007812 226.265625 176.148438 226.488281 176.148438 C 226.539062 176.148438 226.597656 176.140625 226.65625 176.117188 L 248.898438 168.664062 C 249.171875 168.574219 249.320312 168.277344 249.226562 168.003906 Z M 251.800781 178.527344 C 251.753906 178.246094 251.488281 178.050781 251.203125 178.097656 L 228.019531 181.757812 C 227.738281 181.800781 227.539062 182.066406 227.585938 182.351562 C 227.628906 182.609375 227.851562 182.789062 228.101562 182.789062 C 228.128906 182.789062 228.15625 182.789062 228.183594 182.78125 L 251.367188 179.121094 C 251.652344 179.078125 251.847656 178.8125 251.800781 178.527344 Z M 187.527344 149.667969 C 166.425781 149.667969 149.253906 166.761719 149.253906 187.773438 C 149.253906 188.0625 149.492188 188.292969 149.777344 188.292969 C 150.0625 188.292969 150.300781 188.058594 150.300781 187.773438 C 150.300781 167.335938 167 150.710938 187.527344 150.710938 C 208.054688 150.710938 224.753906 167.335938 224.753906 187.773438 C 224.753906 188.0625 224.988281 188.292969 225.273438 188.292969 C 225.5625 188.292969 225.796875 188.058594 225.796875 187.773438 C 225.800781 166.765625 208.632812 149.667969 187.527344 149.667969 Z M 187.527344 155.9375 C 169.898438 155.9375 155.554688 170.222656 155.554688 187.773438 C 155.554688 188.0625 155.789062 188.292969 156.074219 188.292969 C 156.363281 188.292969 156.597656 188.058594 156.597656 187.773438 C 156.597656 170.792969 170.472656 156.976562 187.527344 156.976562 C 187.816406 156.976562 188.050781 156.742188 188.050781 156.457031 C 188.050781 156.171875 187.816406 155.9375 187.527344 155.9375 Z M 187.527344 162.210938 C 173.371094 162.210938 161.851562 173.679688 161.851562 187.773438 C 161.851562 188.0625 162.085938 188.292969 162.371094 188.292969 C 162.660156 188.292969 162.894531 188.058594 162.894531 187.773438 C 162.894531 174.25 173.941406 163.246094 187.527344 163.246094 C 187.816406 163.246094 188.046875 163.011719 188.046875 162.726562 C 188.046875 162.445312 187.816406 162.210938 187.527344 162.210938 Z M 187.527344 168.476562 C 176.839844 168.476562 168.148438 177.132812 168.148438 187.773438 C 168.148438 188.0625 168.382812 188.292969 168.671875 188.292969 C 168.957031 188.292969 169.191406 188.058594 169.191406 187.773438 C 169.191406 177.707031 177.417969 169.515625 187.527344 169.515625 C 187.816406 169.515625 188.050781 169.285156 188.050781 169 C 188.050781 168.714844 187.816406 168.476562 187.527344 168.476562 Z M 187.527344 174.746094 C 180.3125 174.746094 174.445312 180.589844 174.445312 187.773438 C 174.445312 188.0625 174.679688 188.292969 174.964844 188.292969 C 175.253906 188.292969 175.488281 188.058594 175.488281 187.773438 C 175.488281 181.164062 180.890625 175.789062 187.527344 175.789062 C 187.816406 175.789062 188.046875 175.554688 188.046875 175.269531 C 188.046875 174.984375 187.816406 174.746094 187.527344 174.746094 Z M 187.527344 174.746094 " fill-opacity="1" fill-rule="nonzero"/></g><g clip-path="url(#2f1cbea37d)"><path fill="#ffbd59" d="M 228.222656 192.640625 C 228.261719 192.386719 228.484375 192.203125 228.734375 192.203125 C 228.765625 192.203125 228.789062 192.207031 228.816406 192.210938 L 252.003906 195.871094 C 252.289062 195.914062 252.484375 196.179688 252.4375 196.464844 C 252.394531 196.746094 252.125 196.941406 251.839844 196.894531 L 228.65625 193.234375 C 228.371094 193.1875 228.175781 192.925781 228.222656 192.640625 Z M 226.953125 199.855469 L 249.199219 207.3125 C 249.472656 207.40625 249.769531 207.261719 249.859375 206.988281 C 249.953125 206.714844 249.804688 206.421875 249.53125 206.332031 L 227.285156 198.875 C 227.230469 198.855469 227.175781 198.84375 227.117188 198.84375 C 226.902344 198.84375 226.695312 198.980469 226.621094 199.199219 C 226.53125 199.46875 226.679688 199.765625 226.953125 199.855469 Z M 245.355469 216.238281 L 224.664062 205.199219 C 224.585938 205.160156 224.5 205.136719 224.417969 205.136719 C 224.234375 205.136719 224.050781 205.238281 223.957031 205.414062 C 223.820312 205.664062 223.917969 205.980469 224.171875 206.117188 L 244.863281 217.15625 C 245.121094 217.292969 245.433594 217.195312 245.570312 216.941406 C 245.703125 216.6875 245.609375 216.375 245.355469 216.238281 Z M 239.535156 225.265625 L 220.953125 210.984375 C 220.859375 210.910156 220.746094 210.875 220.632812 210.875 C 220.480469 210.875 220.324219 210.945312 220.21875 211.078125 C 220.046875 211.304688 220.085938 211.628906 220.3125 211.808594 L 238.894531 226.089844 C 239.125 226.261719 239.453125 226.222656 239.628906 225.996094 C 239.804688 225.769531 239.765625 225.441406 239.535156 225.265625 Z M 216.367188 216.109375 C 216.265625 216 216.125 215.941406 215.988281 215.941406 C 215.859375 215.941406 215.730469 215.988281 215.628906 216.082031 C 215.417969 216.277344 215.40625 216.605469 215.601562 216.816406 L 231.574219 233.941406 C 231.769531 234.152344 232.101562 234.164062 232.3125 233.96875 C 232.527344 233.773438 232.539062 233.445312 232.34375 233.234375 Z M 211.019531 220.441406 C 210.917969 220.292969 210.753906 220.210938 210.582031 220.210938 C 210.484375 220.210938 210.382812 220.238281 210.296875 220.292969 C 210.054688 220.449219 209.988281 220.773438 210.144531 221.011719 L 223.074219 240.519531 C 223.234375 240.757812 223.554688 240.824219 223.796875 240.667969 C 224.035156 240.511719 224.101562 240.1875 223.945312 239.949219 Z M 205.015625 223.796875 C 204.929688 223.601562 204.738281 223.488281 204.535156 223.488281 C 204.46875 223.488281 204.394531 223.503906 204.324219 223.53125 C 204.0625 223.644531 203.941406 223.953125 204.058594 224.214844 L 213.5625 245.585938 C 213.679688 245.847656 213.988281 245.96875 214.253906 245.851562 C 214.515625 245.734375 214.636719 245.425781 214.519531 245.164062 Z M 198.546875 226.089844 C 198.488281 225.851562 198.273438 225.699219 198.039062 225.699219 C 197.996094 225.699219 197.953125 225.703125 197.910156 225.714844 C 197.632812 225.785156 197.460938 226.070312 197.535156 226.347656 L 203.328125 248.992188 C 203.398438 249.269531 203.683594 249.4375 203.964844 249.367188 C 204.242188 249.292969 204.414062 249.011719 204.339844 248.734375 Z M 191.265625 226.847656 C 191.25 226.847656 191.238281 226.847656 191.222656 226.847656 C 190.933594 226.871094 190.722656 227.125 190.742188 227.410156 L 192.679688 250.699219 C 192.703125 250.984375 192.957031 251.199219 193.242188 251.175781 C 193.527344 251.152344 193.742188 250.898438 193.71875 250.613281 L 191.785156 227.324219 C 191.765625 227.050781 191.535156 226.847656 191.265625 226.847656 Z M 184.410156 226.847656 C 184.394531 226.847656 184.382812 226.847656 184.367188 226.847656 C 184.097656 226.847656 183.867188 227.050781 183.847656 227.324219 L 181.910156 250.613281 C 181.886719 250.898438 182.101562 251.152344 182.390625 251.175781 C 182.675781 251.199219 182.929688 250.984375 182.953125 250.699219 L 184.886719 227.410156 C 184.910156 227.125 184.695312 226.871094 184.410156 226.847656 Z M 177.722656 225.710938 C 177.675781 225.699219 177.636719 225.695312 177.59375 225.695312 C 177.359375 225.695312 177.144531 225.851562 177.085938 226.085938 L 171.292969 248.734375 C 171.21875 249.011719 171.390625 249.292969 171.667969 249.367188 C 171.949219 249.4375 172.230469 249.269531 172.304688 248.992188 L 178.097656 226.34375 C 178.171875 226.066406 178.003906 225.785156 177.722656 225.710938 Z M 171.304688 223.53125 C 171.238281 223.503906 171.167969 223.488281 171.09375 223.488281 C 170.894531 223.488281 170.703125 223.605469 170.617188 223.800781 L 161.113281 245.167969 C 160.996094 245.429688 161.113281 245.738281 161.378906 245.855469 C 161.640625 245.96875 161.953125 245.851562 162.070312 245.589844 L 171.574219 224.222656 C 171.6875 223.957031 171.570312 223.648438 171.304688 223.53125 Z M 165.335938 220.292969 C 165.25 220.234375 165.148438 220.210938 165.050781 220.210938 C 164.878906 220.210938 164.714844 220.292969 164.613281 220.441406 L 151.6875 239.949219 C 151.527344 240.1875 151.59375 240.511719 151.835938 240.667969 C 152.074219 240.824219 152.402344 240.761719 152.558594 240.519531 L 165.484375 221.011719 C 165.644531 220.773438 165.578125 220.453125 165.335938 220.292969 Z M 160.003906 216.082031 C 159.902344 215.988281 159.777344 215.941406 159.648438 215.941406 C 159.507812 215.941406 159.367188 216 159.265625 216.109375 L 143.292969 233.234375 C 143.097656 233.445312 143.109375 233.773438 143.320312 233.96875 C 143.53125 234.164062 143.863281 234.152344 144.058594 233.941406 L 160.03125 216.816406 C 160.226562 216.605469 160.214844 216.277344 160.003906 216.082031 Z M 155.410156 211.078125 C 155.304688 210.945312 155.148438 210.875 154.996094 210.875 C 154.882812 210.875 154.769531 210.910156 154.675781 210.984375 L 136.09375 225.265625 C 135.867188 225.441406 135.824219 225.769531 136 225.996094 C 136.175781 226.222656 136.503906 226.265625 136.734375 226.089844 L 155.316406 211.804688 C 155.542969 211.628906 155.585938 211.304688 155.410156 211.078125 Z M 151.675781 205.414062 C 151.578125 205.238281 151.402344 205.136719 151.214844 205.136719 C 151.132812 205.136719 151.046875 205.160156 150.96875 205.199219 L 130.28125 216.238281 C 130.027344 216.375 129.929688 216.6875 130.066406 216.941406 C 130.203125 217.195312 130.515625 217.289062 130.773438 217.15625 L 151.464844 206.117188 C 151.714844 205.980469 151.8125 205.664062 151.675781 205.414062 Z M 125.773438 206.988281 C 125.863281 207.261719 126.160156 207.40625 126.433594 207.3125 L 148.679688 199.855469 C 148.953125 199.765625 149.101562 199.472656 149.007812 199.199219 C 148.933594 198.984375 148.730469 198.84375 148.511719 198.84375 C 148.457031 198.84375 148.398438 198.851562 148.34375 198.875 L 126.097656 206.332031 C 125.824219 206.421875 125.679688 206.714844 125.773438 206.988281 Z M 123.195312 196.464844 C 123.242188 196.746094 123.507812 196.941406 123.792969 196.894531 L 146.976562 193.234375 C 147.261719 193.191406 147.457031 192.925781 147.410156 192.640625 C 147.367188 192.386719 147.148438 192.203125 146.894531 192.203125 C 146.867188 192.203125 146.84375 192.207031 146.8125 192.210938 L 123.628906 195.871094 C 123.347656 195.914062 123.148438 196.179688 123.195312 196.464844 Z M 187.46875 225.324219 C 208.570312 225.324219 225.742188 208.230469 225.742188 187.21875 C 225.742188 186.933594 225.507812 186.699219 225.21875 186.699219 C 224.933594 186.699219 224.699219 186.933594 224.699219 187.21875 C 224.699219 207.65625 208 224.28125 187.472656 224.28125 C 166.941406 224.28125 150.246094 207.65625 150.246094 187.21875 C 150.246094 186.933594 150.007812 186.699219 149.722656 186.699219 C 149.4375 186.699219 149.199219 186.933594 149.199219 187.21875 C 149.195312 208.230469 166.363281 225.324219 187.46875 225.324219 Z M 187.46875 219.054688 C 205.101562 219.054688 219.441406 204.769531 219.441406 187.21875 C 219.441406 186.933594 219.207031 186.699219 218.921875 186.699219 C 218.632812 186.699219 218.398438 186.933594 218.398438 187.21875 C 218.398438 204.199219 204.523438 218.015625 187.46875 218.015625 C 187.179688 218.015625 186.945312 218.25 186.945312 218.535156 C 186.945312 218.820312 187.179688 219.054688 187.46875 219.054688 Z M 187.46875 212.78125 C 201.628906 212.78125 213.148438 201.3125 213.148438 187.21875 C 213.148438 186.933594 212.914062 186.699219 212.625 186.699219 C 212.339844 186.699219 212.105469 186.933594 212.105469 187.21875 C 212.105469 200.742188 201.054688 211.746094 187.472656 211.746094 C 187.179688 211.746094 186.949219 211.980469 186.949219 212.265625 C 186.949219 212.550781 187.179688 212.78125 187.46875 212.78125 Z M 187.46875 206.515625 C 198.15625 206.515625 206.847656 197.859375 206.847656 187.21875 C 206.847656 186.933594 206.613281 186.699219 206.328125 186.699219 C 206.039062 186.699219 205.804688 186.933594 205.804688 187.21875 C 205.804688 197.285156 197.578125 205.476562 187.46875 205.476562 C 187.179688 205.476562 186.945312 205.707031 186.945312 205.992188 C 186.945312 206.277344 187.179688 206.515625 187.46875 206.515625 Z M 187.46875 200.246094 C 194.683594 200.246094 200.554688 194.402344 200.554688 187.21875 C 200.554688 186.933594 200.316406 186.699219 200.03125 186.699219 C 199.746094 186.699219 199.507812 186.933594 199.507812 187.21875 C 199.507812 193.828125 194.109375 199.203125 187.472656 199.203125 C 187.179688 199.203125 186.949219 199.4375 186.949219 199.722656 C 186.949219 200.007812 187.179688 200.246094 187.46875 200.246094 Z M 187.46875 200.246094 " fill-opacity="1" fill-rule="nonzero"/></g></svg>