<svg xmlns="http://www.w3.org/2000/svg" xmlns:xlink="http://www.w3.org/1999/xlink" width="500" zoomAndPan="magnify" viewBox="0 0 375 374.999991" height="500" preserveAspectRatio="xMidYMid meet" version="1.0"><defs><g/></defs><g fill="#001f36" fill-opacity="1"><g transform="translate(16.172127, 202.888105)"><g><path d="M 40.976562 -91.082031 L 25.988281 -91.082031 L 25.988281 -88.621094 L 26.222656 -88.621094 C 27.042969 -88.621094 31.375 -88.390625 31.492188 -83.472656 L 31.492188 -32.429688 L 12.761719 -90.847656 L 12.644531 -91.082031 L 0.351562 -90.847656 L 0.351562 -87.921875 L 0.703125 -87.921875 C 3.042969 -87.921875 4.449219 -87.453125 5.035156 -86.632812 C 5.503906 -85.8125 5.738281 -84.058594 5.738281 -81.363281 L 5.738281 -2.457031 L 0.351562 -2.457031 L 0.351562 0 L 15.101562 0 L 15.101562 -2.457031 L 10.066406 -2.457031 L 10.066406 -65.207031 L 30.320312 -3.042969 C 30.4375 -2.457031 30.671875 -1.988281 31.023438 -1.523438 C 31.609375 -0.585938 32.195312 0 33.015625 0 L 34.066406 0 C 34.652344 0 35.589844 -0.351562 35.589844 -1.875 L 35.589844 -84.640625 C 35.707031 -86.164062 36.175781 -88.507812 38.28125 -88.621094 L 40.976562 -88.621094 Z M 40.976562 -91.082031 "/></g></g></g><g fill="#001f36" fill-opacity="1"><g transform="translate(59.837574, 202.888105)"><g><path d="M 31.375 -15.6875 C 30.320312 -15.6875 29.96875 -15.570312 29.851562 -15.570312 L 29.617188 -15.453125 L 29.617188 -15.101562 C 29.503906 -14.632812 29.386719 -14.164062 29.269531 -13.699219 C 29.152344 -13.230469 29.035156 -12.761719 28.917969 -12.292969 C 28.683594 -11.707031 28.566406 -11.238281 28.449219 -10.886719 C 27.628906 -8.898438 26.339844 -7.140625 24.351562 -5.621094 C 22.359375 -4.097656 19.550781 -3.394531 16.15625 -3.511719 C 14.515625 -3.746094 12.996094 -4.449219 11.707031 -5.621094 C 10.417969 -6.789062 9.835938 -8.3125 9.835938 -10.300781 L 9.835938 -23.53125 C 9.835938 -23.648438 9.835938 -23.648438 9.835938 -23.648438 L 9.835938 -25.753906 C 10.417969 -25.753906 10.886719 -25.753906 11.355469 -25.753906 C 15.21875 -25.753906 18.964844 -25.753906 22.710938 -25.988281 C 25.753906 -26.105469 28.683594 -26.808594 30.90625 -28.917969 C 33.949219 -31.726562 34.417969 -36.175781 33.832031 -40.15625 C 33.367188 -44.371094 31.960938 -48.351562 28.332031 -50.925781 C 27.042969 -51.863281 25.40625 -52.566406 23.53125 -53.265625 C 21.65625 -53.851562 19.316406 -54.203125 16.859375 -54.203125 L 16.15625 -54.203125 C 12.527344 -54.203125 9.367188 -53.5 7.023438 -51.980469 C 5.386719 -51.042969 4.097656 -49.988281 3.160156 -48.820312 C 2.222656 -47.53125 1.523438 -46.476562 1.054688 -45.421875 C 0.585938 -44.136719 0.234375 -42.847656 0 -41.441406 L 0 -14.515625 C 0 -13.699219 0 -12.878906 0.117188 -12.175781 C 0.234375 -11.589844 0.351562 -10.886719 0.46875 -10.300781 C 0.46875 -9.601562 0.585938 -9.132812 0.9375 -8.78125 C 1.289062 -7.84375 1.757812 -6.90625 2.574219 -5.855469 C 3.277344 -4.917969 4.332031 -3.863281 5.503906 -3.042969 C 6.671875 -2.105469 8.195312 -1.40625 9.949219 -0.820312 C 11.707031 -0.234375 13.8125 0.117188 16.390625 0.117188 L 16.976562 0.117188 C 20.253906 0.117188 23.179688 -0.703125 25.753906 -2.222656 C 28.214844 -3.746094 30.203125 -5.855469 31.492188 -8.664062 C 31.84375 -9.484375 32.078125 -10.183594 32.195312 -11.003906 C 32.429688 -11.824219 32.664062 -12.527344 32.898438 -13.113281 C 32.898438 -13.8125 33.015625 -14.515625 33.132812 -15.21875 L 33.25 -15.570312 L 32.898438 -15.570312 C 32.664062 -15.570312 32.3125 -15.570312 31.375 -15.6875 Z M 9.835938 -46.359375 C 9.835938 -46.710938 9.949219 -47.0625 10.066406 -47.414062 C 10.300781 -48.820312 10.886719 -49.871094 11.824219 -50.691406 C 12.644531 -51.277344 13.582031 -51.746094 14.632812 -51.980469 C 23.648438 -53.5 27.863281 -41.210938 25.988281 -33.949219 C 25.523438 -31.960938 24.703125 -29.386719 22.476562 -28.800781 C 20.488281 -28.332031 18.378906 -28.214844 16.390625 -28.214844 C 14.515625 -28.332031 12.410156 -28.214844 10.652344 -29.035156 C 10.417969 -29.269531 10.066406 -29.386719 9.835938 -29.617188 Z M 9.835938 -46.359375 "/></g></g></g><g fill="#001f36" fill-opacity="1"><g transform="translate(96.830284, 202.888105)"><g><path d="M 51.277344 -53.035156 L 51.277344 -49.988281 L 51.746094 -49.988281 C 52.214844 -49.988281 52.917969 -49.988281 53.734375 -50.105469 C 54.4375 -50.222656 55.140625 -50.222656 55.84375 -50.105469 C 56.429688 -50.105469 56.898438 -49.871094 57.246094 -49.519531 C 57.597656 -49.285156 57.597656 -48.820312 57.246094 -48.117188 L 46.242188 -3.628906 L 37.347656 -47.414062 C 37.113281 -48.234375 37.230469 -48.9375 37.695312 -49.402344 C 37.929688 -49.753906 38.75 -50.105469 41.09375 -50.105469 L 41.441406 -50.105469 L 41.441406 -53.035156 L 23.882812 -53.035156 L 23.882812 -49.988281 L 24.234375 -49.988281 C 24.9375 -49.988281 25.636719 -49.988281 26.339844 -49.871094 C 26.808594 -49.871094 27.160156 -49.402344 27.277344 -48.9375 C 27.628906 -48.46875 27.863281 -47.882812 27.980469 -47.296875 C 28.214844 -46.710938 28.332031 -46.242188 28.332031 -45.65625 C 28.449219 -45.074219 28.566406 -44.605469 28.683594 -44.019531 C 28.917969 -42.613281 29.269531 -41.09375 29.503906 -39.6875 C 29.617188 -39.570312 29.617188 -39.570312 29.617188 -39.453125 C 30.320312 -35.824219 31.140625 -31.84375 32.078125 -27.511719 L 26.105469 -3.394531 L 14.28125 -47.414062 C 14.164062 -48.234375 14.28125 -48.9375 14.632812 -49.402344 C 14.984375 -49.753906 15.804688 -50.105469 18.027344 -50.105469 L 18.378906 -50.105469 L 18.378906 -53.035156 L 0.703125 -53.035156 L 0.703125 -49.988281 L 1.054688 -49.988281 C 1.988281 -49.988281 2.691406 -49.988281 3.277344 -49.871094 C 3.394531 -49.871094 3.980469 -49.636719 4.800781 -47.765625 C 4.800781 -47.648438 4.917969 -47.53125 4.917969 -47.414062 C 4.917969 -47.414062 5.035156 -47.414062 5.035156 -47.179688 C 5.035156 -46.242188 5.386719 -44.839844 5.96875 -42.964844 C 6.4375 -41.210938 7.023438 -39.101562 7.609375 -36.644531 C 8.195312 -34.300781 8.898438 -31.726562 9.71875 -29.035156 C 10.417969 -26.339844 11.121094 -23.53125 11.824219 -20.839844 C 13.464844 -14.515625 15.335938 -7.609375 17.445312 -0.234375 L 17.445312 0 L 29.386719 0 L 29.503906 -0.234375 C 30.085938 -2.105469 30.554688 -3.980469 31.023438 -6.085938 C 31.492188 -7.960938 31.960938 -9.949219 32.546875 -12.292969 C 33.015625 -14.046875 33.480469 -16.039062 33.949219 -18.027344 C 34.300781 -16.039062 34.769531 -14.164062 35.121094 -12.292969 C 35.589844 -9.949219 35.941406 -7.960938 36.292969 -6.085938 C 36.761719 -3.980469 37.230469 -1.988281 37.460938 -0.234375 L 37.578125 0 L 50.222656 0 L 50.222656 -0.234375 C 52.097656 -8.195312 53.734375 -15.453125 55.375 -22.007812 C 55.960938 -24.703125 56.664062 -27.511719 57.363281 -30.320312 C 57.949219 -33.132812 58.535156 -35.707031 59.121094 -38.046875 C 59.707031 -40.273438 60.175781 -42.378906 60.644531 -44.019531 C 61.109375 -45.65625 61.460938 -46.828125 61.578125 -47.414062 C 62.398438 -49.054688 63.21875 -49.871094 64.273438 -49.988281 C 65.441406 -50.105469 66.964844 -50.105469 68.839844 -50.105469 L 69.1875 -50.105469 L 69.1875 -53.035156 Z M 51.277344 -53.035156 "/></g></g></g><g fill="#001f36" fill-opacity="1"><g transform="translate(169.176789, 202.888105)"><g/></g></g><g fill="#001f36" fill-opacity="1"><g transform="translate(195.282395, 202.888105)"><g><path d="M 42.847656 -88.15625 L 42.847656 -90.496094 L 24 -90.496094 L 24 -88.15625 L 28.449219 -88.15625 L 28.449219 -48.351562 L 14.632812 -48.351562 L 14.632812 -88.15625 L 18.847656 -88.15625 L 18.847656 -90.496094 L 0 -90.496094 L 0 -88.15625 L 4.449219 -88.15625 L 4.449219 -2.457031 L 0 -2.457031 L 0 -0.117188 L 18.847656 -0.117188 L 18.847656 -2.457031 L 14.632812 -2.457031 L 14.632812 -45.074219 L 28.449219 -45.074219 L 28.449219 -2.222656 L 24 -2.222656 L 24 -0.117188 L 42.847656 -0.117188 L 42.847656 -2.222656 L 38.632812 -2.222656 L 38.632812 -88.15625 Z M 42.847656 -88.15625 "/></g></g></g><g fill="#001f36" fill-opacity="1"><g transform="translate(242.22567, 202.888105)"><g><path d="M 32.78125 -45.191406 C 32.429688 -46.125 31.84375 -47.179688 31.140625 -48.234375 C 30.554688 -49.285156 29.503906 -50.222656 28.332031 -51.160156 C 27.042969 -51.980469 25.523438 -52.800781 23.765625 -53.265625 C 22.007812 -53.851562 19.785156 -54.203125 17.328125 -54.203125 L 16.742188 -54.203125 C 13.113281 -54.203125 10.066406 -53.382812 7.609375 -51.863281 C 5.96875 -51.042969 4.683594 -49.871094 3.746094 -48.703125 C 2.808594 -47.53125 2.105469 -46.359375 1.640625 -45.304688 C 1.171875 -44.019531 0.820312 -42.730469 0.585938 -41.441406 L 0.585938 -11.707031 C 0.585938 -11.121094 0.9375 -10.183594 1.523438 -8.78125 C 1.875 -7.84375 2.339844 -6.789062 3.042969 -5.855469 C 3.746094 -4.800781 4.683594 -3.863281 5.96875 -2.925781 C 7.140625 -2.105469 8.664062 -1.289062 10.417969 -0.703125 C 12.292969 -0.117188 14.398438 0.234375 16.976562 0.234375 L 17.679688 0.234375 C 21.191406 0.234375 24.234375 -0.585938 26.691406 -1.988281 C 28.332031 -2.925781 29.617188 -3.980469 30.554688 -5.152344 C 31.375 -6.320312 32.078125 -7.492188 32.546875 -8.664062 C 33.015625 -9.835938 33.367188 -11.121094 33.597656 -12.527344 L 33.597656 -42.261719 C 33.597656 -43.199219 33.367188 -44.136719 32.78125 -45.191406 Z M 10.417969 -46.359375 C 10.417969 -46.59375 10.535156 -46.945312 10.652344 -47.296875 C 11.003906 -48.703125 11.589844 -49.753906 12.410156 -50.574219 C 13.230469 -51.277344 14.164062 -51.628906 15.101562 -51.863281 C 16.15625 -51.980469 16.976562 -52.097656 17.445312 -52.097656 C 18.027344 -52.097656 18.613281 -51.980469 19.316406 -51.746094 C 20.019531 -51.628906 20.839844 -51.160156 21.65625 -50.457031 C 22.476562 -49.753906 22.945312 -49.054688 23.179688 -48.351562 C 23.414062 -47.765625 23.765625 -47.0625 23.882812 -46.359375 C 24 -45.191406 24 -43.902344 24 -42.730469 C 24 -40.039062 24 -37.460938 24 -34.769531 C 24 -31.492188 24 -28.097656 24 -24.820312 C 24 -21.773438 24 -18.613281 24 -15.570312 C 24 -13.8125 24 -12.058594 23.882812 -10.417969 C 23.882812 -8.898438 24.117188 -7.023438 23.53125 -5.503906 C 23.179688 -4.683594 22.710938 -3.980469 22.007812 -3.394531 C 21.074219 -2.691406 20.136719 -2.222656 19.082031 -2.105469 C 18.144531 -1.875 17.328125 -1.875 16.742188 -1.875 C 13.464844 -1.875 10.652344 -4.683594 10.417969 -7.960938 C 10.417969 -9.25 10.417969 -10.535156 10.417969 -11.824219 C 10.417969 -16.507812 10.417969 -21.074219 10.417969 -25.753906 C 10.417969 -30.554688 10.417969 -35.472656 10.417969 -40.273438 C 10.417969 -42.261719 10.417969 -44.253906 10.417969 -46.359375 Z M 10.417969 -46.359375 "/></g></g></g><g fill="#001f36" fill-opacity="1"><g transform="translate(279.920772, 202.888105)"><g><path d="M 38.515625 -40.859375 C 38.398438 -42.144531 38.164062 -43.433594 37.695312 -44.839844 C 37.230469 -45.773438 36.527344 -46.945312 35.589844 -48.117188 C 34.652344 -49.402344 33.367188 -50.457031 31.726562 -51.394531 C 30.554688 -51.980469 29.269531 -52.566406 27.863281 -52.917969 C 26.457031 -53.382812 24.703125 -53.617188 22.710938 -53.617188 L 22.007812 -53.617188 C 20.371094 -53.617188 18.964844 -53.265625 17.792969 -52.800781 C 16.859375 -52.332031 16.15625 -51.746094 15.453125 -51.160156 L 15.453125 -51.394531 C 15.453125 -52.097656 15.101562 -52.683594 14.632812 -53.265625 C 14.046875 -53.851562 13.230469 -53.734375 12.175781 -53.035156 C 10.300781 -51.746094 8.664062 -50.691406 7.257812 -49.871094 C 5.96875 -49.054688 4.917969 -48.351562 4.214844 -48 C 3.277344 -47.414062 2.574219 -46.945312 1.988281 -46.59375 L 1.757812 -46.476562 L 1.757812 -44.722656 L 2.925781 -44.722656 C 3.628906 -44.722656 3.980469 -44.605469 4.097656 -44.605469 C 4.683594 -44.488281 5.035156 -44.136719 5.269531 -43.667969 C 5.269531 -43.550781 5.269531 -43.433594 5.269531 -43.316406 L 5.152344 -43.199219 L 5.152344 -33.714844 C 5.152344 -36.292969 5.152344 -38.75 5.152344 -41.324219 C 5.152344 -38.164062 5.152344 -35.003906 5.152344 -31.726562 C 5.152344 -31.84375 5.152344 -31.960938 5.152344 -32.078125 L 5.152344 -5.386719 C 5.152344 -4.566406 5.152344 -3.863281 5.152344 -3.160156 C 4.917969 8.3125 3.746094 20.136719 -0.351562 31.023438 C -1.523438 34.300781 -3.160156 39.335938 -5.738281 41.792969 C -6.320312 42.847656 -7.023438 43.785156 -7.726562 44.722656 C -6.90625 43.667969 -3.628906 43.550781 -2.457031 42.730469 C -0.585938 41.558594 1.171875 40.039062 2.808594 38.28125 C 7.960938 32.664062 11.824219 24.585938 13.113281 15.6875 C 14.046875 9.835938 14.515625 4.097656 14.867188 -1.757812 C 15.101562 -1.875 15.335938 -1.875 15.570312 -1.875 L 15.570312 -1.757812 C 16.15625 -1.054688 16.976562 -0.46875 17.792969 0 C 18.964844 0.585938 20.253906 0.9375 21.65625 0.9375 L 22.359375 0.9375 C 24.9375 0.9375 27.042969 0.585938 28.917969 0 C 30.671875 -0.585938 32.195312 -1.40625 33.367188 -2.222656 C 34.652344 -3.160156 35.589844 -4.097656 36.292969 -5.152344 C 36.996094 -6.203125 37.460938 -7.257812 37.8125 -8.195312 C 38.28125 -9.25 38.515625 -10.183594 38.515625 -11.003906 Z M 28.917969 -6.789062 C 28.800781 -6.320312 28.566406 -5.738281 28.332031 -4.917969 C 27.980469 -4.214844 27.511719 -3.511719 26.808594 -2.808594 C 25.871094 -2.105469 25.171875 -1.757812 24.46875 -1.523438 C 23.765625 -1.40625 23.0625 -1.289062 22.59375 -1.289062 C 22.007812 -1.289062 21.191406 -1.289062 20.253906 -1.523438 C 19.316406 -1.640625 18.378906 -1.988281 17.5625 -2.691406 C 16.507812 -3.628906 15.921875 -4.683594 15.570312 -5.855469 L 15.570312 -45.074219 L 15.453125 -45.074219 C 15.453125 -45.191406 15.453125 -45.304688 15.453125 -45.421875 C 15.570312 -45.539062 15.570312 -45.773438 15.570312 -46.125 C 15.6875 -46.59375 15.921875 -47.0625 16.273438 -47.765625 C 16.507812 -48.46875 17.09375 -49.171875 17.679688 -49.871094 C 18.496094 -50.574219 19.316406 -51.042969 20.019531 -51.160156 C 20.722656 -51.394531 21.308594 -51.394531 21.890625 -51.394531 C 22.476562 -51.394531 23.179688 -51.394531 24.234375 -51.277344 C 25.171875 -51.042969 26.105469 -50.691406 26.925781 -49.988281 C 27.746094 -49.285156 28.332031 -48.117188 28.683594 -46.710938 C 28.800781 -46.359375 28.917969 -46.125 28.917969 -45.773438 L 28.917969 -8.546875 C 28.917969 -8.429688 28.917969 -8.3125 29.035156 -8.195312 C 29.035156 -8.078125 29.035156 -8.078125 29.035156 -8.078125 C 29.035156 -7.492188 29.035156 -7.140625 28.917969 -6.789062 Z M 28.917969 -6.789062 "/></g></g></g><g fill="#001f36" fill-opacity="1"><g transform="translate(321.830239, 202.888105)"><g><path d="M 31.375 -15.6875 C 30.320312 -15.6875 29.96875 -15.570312 29.851562 -15.570312 L 29.617188 -15.453125 L 29.617188 -15.101562 C 29.503906 -14.632812 29.386719 -14.164062 29.269531 -13.699219 C 29.152344 -13.230469 29.035156 -12.761719 28.917969 -12.292969 C 28.683594 -11.707031 28.566406 -11.238281 28.449219 -10.886719 C 27.628906 -8.898438 26.339844 -7.140625 24.351562 -5.621094 C 22.359375 -4.097656 19.550781 -3.394531 16.15625 -3.511719 C 14.515625 -3.746094 12.996094 -4.449219 11.707031 -5.621094 C 10.417969 -6.789062 9.835938 -8.3125 9.835938 -10.300781 L 9.835938 -23.53125 C 9.835938 -23.648438 9.835938 -23.648438 9.835938 -23.648438 L 9.835938 -25.753906 C 10.417969 -25.753906 10.886719 -25.753906 11.355469 -25.753906 C 15.21875 -25.753906 18.964844 -25.753906 22.710938 -25.988281 C 25.753906 -26.105469 28.683594 -26.808594 30.90625 -28.917969 C 33.949219 -31.726562 34.417969 -36.175781 33.832031 -40.15625 C 33.367188 -44.371094 31.960938 -48.351562 28.332031 -50.925781 C 27.042969 -51.863281 25.40625 -52.566406 23.53125 -53.265625 C 21.65625 -53.851562 19.316406 -54.203125 16.859375 -54.203125 L 16.15625 -54.203125 C 12.527344 -54.203125 9.367188 -53.5 7.023438 -51.980469 C 5.386719 -51.042969 4.097656 -49.988281 3.160156 -48.820312 C 2.222656 -47.53125 1.523438 -46.476562 1.054688 -45.421875 C 0.585938 -44.136719 0.234375 -42.847656 0 -41.441406 L 0 -14.515625 C 0 -13.699219 0 -12.878906 0.117188 -12.175781 C 0.234375 -11.589844 0.351562 -10.886719 0.46875 -10.300781 C 0.46875 -9.601562 0.585938 -9.132812 0.9375 -8.78125 C 1.289062 -7.84375 1.757812 -6.90625 2.574219 -5.855469 C 3.277344 -4.917969 4.332031 -3.863281 5.503906 -3.042969 C 6.671875 -2.105469 8.195312 -1.40625 9.949219 -0.820312 C 11.707031 -0.234375 13.8125 0.117188 16.390625 0.117188 L 16.976562 0.117188 C 20.253906 0.117188 23.179688 -0.703125 25.753906 -2.222656 C 28.214844 -3.746094 30.203125 -5.855469 31.492188 -8.664062 C 31.84375 -9.484375 32.078125 -10.183594 32.195312 -11.003906 C 32.429688 -11.824219 32.664062 -12.527344 32.898438 -13.113281 C 32.898438 -13.8125 33.015625 -14.515625 33.132812 -15.21875 L 33.25 -15.570312 L 32.898438 -15.570312 C 32.664062 -15.570312 32.3125 -15.570312 31.375 -15.6875 Z M 9.835938 -46.359375 C 9.835938 -46.710938 9.949219 -47.0625 10.066406 -47.414062 C 10.300781 -48.820312 10.886719 -49.871094 11.824219 -50.691406 C 12.644531 -51.277344 13.582031 -51.746094 14.632812 -51.980469 C 23.648438 -53.5 27.863281 -41.210938 25.988281 -33.949219 C 25.523438 -31.960938 24.703125 -29.386719 22.476562 -28.800781 C 20.488281 -28.332031 18.378906 -28.214844 16.390625 -28.214844 C 14.515625 -28.332031 12.410156 -28.214844 10.652344 -29.035156 C 10.417969 -29.269531 10.066406 -29.386719 9.835938 -29.617188 Z M 9.835938 -46.359375 "/></g></g></g><g fill="#cf7a61" fill-opacity="1"><g transform="translate(57.840108, 254.563181)"><g><path d="M 2.945312 16.464844 C 4.828125 19.132812 8.230469 20.28125 11.359375 19.269531 C 20.605469 16.371094 30.398438 -1.195312 41.160156 -0.460938 C 41.484375 -0.507812 41.484375 -0.691406 41.253906 -0.875 C 41.023438 -1.058594 40.746094 -1.105469 40.472656 -1.148438 C 30.167969 -1.792969 18.210938 16.417969 9.152344 18.351562 C 7.21875 18.71875 5.886719 18.167969 4.828125 16.554688 C 4.140625 15.542969 3.585938 14.441406 3.265625 13.246094 C 2.621094 10.992188 2.484375 8.644531 2.4375 5.566406 C 2.484375 1.792969 3.265625 -2.621094 4.597656 -6.945312 C 7.035156 -14.761719 10.761719 -21.984375 15.039062 -28.925781 C 18.625 -34.769531 22.671875 -40.242188 27.871094 -44.75 C 30.398438 -46.957031 33.113281 -48.933594 36.238281 -50.128906 C 40.378906 -51.738281 43.09375 -50.40625 44.425781 -46.21875 C 45.390625 -43.046875 45.207031 -39.917969 44.152344 -36.882812 C 41.253906 -28.652344 35.964844 -22.351562 28.191406 -18.257812 C 26.71875 -17.429688 25.109375 -17.015625 23.410156 -16.832031 C 22.488281 -16.742188 21.84375 -17.152344 21.339844 -17.84375 C 21.203125 -18.027344 21.0625 -18.257812 20.972656 -18.441406 C 20.648438 -18.855469 20.191406 -19.269531 19.730469 -18.992188 C 19.222656 -18.625 19.636719 -18.074219 19.914062 -17.707031 C 20.925781 -16.371094 22.257812 -15.636719 23.914062 -15.589844 C 26.078125 -15.542969 28.054688 -16.140625 29.894531 -17.152344 C 36.839844 -20.925781 41.941406 -26.492188 45.347656 -33.617188 C 46.957031 -36.976562 47.738281 -40.5625 47 -44.378906 C 46.21875 -48.335938 44.105469 -51.050781 39.964844 -51.921875 C 37.296875 -52.472656 34.90625 -51.738281 32.5625 -50.496094 C 28.144531 -48.152344 24.421875 -44.839844 21.246094 -41.023438 C 13.84375 -32.148438 8.09375 -22.257812 3.863281 -11.496094 C 1.242188 -4.875 -0.183594 1.976562 0.507812 9.199219 C 0.734375 11.820312 1.425781 14.304688 2.945312 16.464844 Z M 2.945312 16.464844 "/></g></g></g><g fill="#cf7a61" fill-opacity="1"><g transform="translate(104.698133, 254.563181)"><g><path d="M 3.21875 -1.472656 C 3.3125 -0.507812 3.449219 0.460938 3.910156 1.332031 C 5.472656 4.277344 8.601562 4.921875 11.222656 3.816406 C 16.511719 1.5625 26.445312 -7.128906 32.148438 -7.816406 C 32.101562 -8.003906 32.101562 -8.09375 32.054688 -8.140625 C 30.492188 -9.886719 16.371094 -0.183594 11.726562 2.070312 C 10.53125 2.667969 9.335938 3.171875 7.957031 3.171875 C 7.265625 3.128906 6.804688 2.851562 6.53125 2.207031 C 6.253906 1.5625 6.117188 0.875 6.117188 0.136719 C 6.070312 -1.519531 6.394531 -3.082031 7.035156 -4.644531 C 7.542969 -5.933594 8.324219 -7.082031 9.015625 -8.277344 C 9.519531 -9.242188 9.429688 -9.566406 8.460938 -10.027344 C 8.1875 -10.164062 7.910156 -10.347656 7.632812 -10.253906 C 7.128906 -10.070312 6.851562 -10.347656 6.484375 -10.578125 C 5.105469 -11.359375 3.726562 -11.542969 2.34375 -10.667969 C -0.964844 -8.601562 -2.484375 -5.472656 -2.390625 -1.65625 C -2.390625 -0.367188 -0.917969 0.367188 0.277344 -0.183594 C 0.734375 -0.414062 1.148438 -0.734375 1.472656 -1.105469 C 1.976562 -1.5625 2.484375 -2.070312 3.035156 -2.621094 C 3.21875 -2.160156 3.171875 -1.792969 3.21875 -1.472656 Z M 0.644531 -2.023438 C 0.320312 -1.746094 -0.046875 -1.519531 -0.550781 -1.148438 C -0.550781 -2.160156 -0.367188 -2.898438 -0.09375 -3.542969 C 0.734375 -5.65625 1.929688 -7.449219 3.679688 -8.921875 C 4 -9.199219 4.414062 -9.382812 4.78125 -9.613281 C 5.011719 -9.75 5.335938 -9.796875 5.519531 -9.472656 C 5.703125 -9.199219 5.886719 -8.96875 5.65625 -8.601562 C 4.183594 -6.253906 2.757812 -3.863281 0.644531 -2.023438 Z M 0.644531 -2.023438 "/></g></g></g><g fill="#cf7a61" fill-opacity="1"><g transform="translate(135.737552, 254.563181)"><g><path d="M -3.355469 14.578125 C -2.253906 14.671875 0 13.703125 0.917969 12.738281 C 1.058594 12.601562 1.378906 12.417969 1.148438 12.1875 C 0.917969 11.910156 0.644531 12.050781 0.460938 12.234375 C -0.277344 12.878906 -1.105469 13.292969 -1.976562 13.660156 C -4.140625 14.625 -5.378906 13.796875 -5.335938 11.40625 C -5.335938 9.796875 -4.78125 8.277344 -4.09375 6.804688 C -2.714844 3.863281 -0.875 1.242188 0.875 -1.425781 C 1.472656 -2.390625 2.023438 -3.355469 2.34375 -4.460938 C 2.53125 -5.058594 2.757812 -5.839844 2.300781 -6.253906 C 1.332031 -7.21875 1.839844 -7.863281 2.621094 -8.554688 C 2.804688 -8.691406 2.898438 -8.96875 2.988281 -9.242188 C 3.082031 -9.519531 3.082031 -9.796875 2.851562 -9.980469 C 2.390625 -10.53125 1.792969 -10.808594 1.058594 -10.667969 C 0.183594 -10.484375 -0.460938 -9.980469 -0.691406 -9.058594 C -0.875 -8.324219 -0.644531 -7.542969 -0.046875 -7.128906 C 0.460938 -6.804688 0.507812 -6.4375 0.414062 -5.980469 C 0.320312 -5.105469 0 -4.324219 -0.460938 -3.585938 C -1.195312 -2.390625 -1.929688 -1.195312 -2.667969 -0.046875 C -4 2.023438 -5.242188 4.09375 -6.117188 6.347656 C -6.804688 8.277344 -7.082031 10.210938 -6.4375 12.234375 C -6.023438 13.519531 -4.691406 14.53125 -3.355469 14.578125 Z M -3.355469 14.578125 "/></g></g></g><g fill="#cf7a61" fill-opacity="1"><g transform="translate(147.923403, 254.563181)"><g><path d="M 8.832031 1.886719 C 13.152344 0.277344 22.074219 -6.53125 30.675781 -7.679688 C 30.398438 -8.277344 29.984375 -8.277344 29.617188 -8.277344 C 22.121094 -7.449219 12.28125 -0.964844 9.382812 0.414062 C 8.09375 1.011719 6.761719 1.425781 5.289062 1.5625 C 4.230469 1.65625 3.265625 1.425781 2.53125 0.550781 C 0.78125 -1.703125 0.644531 -4.046875 1.792969 -6.578125 C 2.023438 -7.082031 2.300781 -7.359375 2.945312 -7.175781 C 3.816406 -6.945312 4.691406 -6.992188 5.566406 -7.265625 C 7.359375 -7.863281 8.832031 -8.96875 10.164062 -10.253906 C 10.394531 -10.484375 10.53125 -10.714844 10.667969 -10.992188 C 11.039062 -11.726562 10.898438 -12.464844 10.210938 -12.96875 C 9.105469 -13.75 7.910156 -14.210938 6.578125 -13.796875 C 3.128906 -12.785156 0.507812 -10.761719 -0.78125 -7.3125 C -1.5625 -5.195312 -1.332031 -3.171875 -0.230469 -1.332031 C 2.023438 2.34375 4.691406 3.449219 8.832031 1.886719 Z M 8.738281 -12.050781 C 8.1875 -10.347656 5.195312 -8.460938 3.355469 -8.644531 C 4.09375 -10.253906 7.082031 -12.140625 8.738281 -12.050781 Z M 8.738281 -12.050781 "/></g></g></g><g fill="#cf7a61" fill-opacity="1"><g transform="translate(177.905182, 254.563181)"><g><path d="M -1.332031 20.464844 C 0.230469 16.832031 1.792969 13.199219 3.3125 9.566406 C 3.542969 8.96875 3.816406 8.785156 4.414062 8.921875 C 5.839844 9.242188 7.21875 9.472656 8.644531 9.703125 C 9.472656 9.84375 10.300781 9.933594 11.175781 10.027344 C 11.359375 10.027344 11.636719 10.070312 11.679688 9.796875 C 11.773438 9.566406 11.496094 9.472656 11.359375 9.335938 C 11.265625 9.289062 11.222656 9.242188 11.175781 9.242188 C 9.429688 8.601562 7.679688 7.910156 5.839844 7.726562 C 4.140625 7.496094 4.046875 7.679688 4.875 5.886719 C 6.394531 2.574219 8.003906 -0.734375 9.703125 -4 C 11.175781 -6.804688 12.785156 -9.519531 14.578125 -12.140625 C 14.902344 -12.648438 15.316406 -13.105469 15.683594 -13.613281 C 15.773438 -13.75 15.914062 -13.933594 15.683594 -14.164062 C 15.222656 -14.578125 13.660156 -14.761719 13.105469 -14.394531 C 12.371094 -13.890625 11.679688 -13.382812 10.992188 -12.785156 C 10.578125 -12.464844 10.300781 -12.371094 9.84375 -12.785156 C 8.644531 -13.660156 7.3125 -13.933594 5.886719 -13.476562 C 5.105469 -13.246094 4.367188 -12.921875 3.679688 -12.417969 C 1.195312 -10.667969 -0.734375 -8.417969 -2.160156 -5.703125 C -2.757812 -4.507812 -3.355469 -3.265625 -3.355469 -1.886719 C -3.402344 -0.230469 -1.792969 0.78125 -0.320312 0 C 0.09375 -0.230469 0.507812 -0.507812 0.875 -0.828125 C 2.851562 -2.667969 4.738281 -4.644531 6.621094 -6.578125 C 7.542969 -7.449219 8.371094 -8.324219 9.472656 -8.96875 C 9.429688 -8.371094 9.015625 -7.957031 8.738281 -7.449219 C 6.070312 -3.082031 3.863281 1.5625 1.839844 6.253906 C 1.519531 7.082031 1.519531 7.082031 0.597656 6.992188 C -1.105469 6.851562 -2.804688 6.804688 -4.507812 6.945312 C -9.199219 7.359375 -13.613281 8.601562 -17.84375 10.578125 C -23.914062 13.429688 -29.296875 17.199219 -33.617188 22.398438 C -36.148438 25.476562 -38.171875 28.789062 -39 32.789062 C -39.734375 36.238281 -39.828125 39.597656 -38.632812 42.910156 C -37.894531 44.933594 -36.976562 46.863281 -35.089844 48.152344 C -31.226562 50.726562 -27.089844 51.140625 -22.765625 49.4375 C -19.867188 48.335938 -17.476562 46.449219 -15.316406 44.242188 C -11.496094 40.425781 -8.785156 35.917969 -6.253906 31.226562 C -4.367188 27.777344 -2.898438 24.054688 -1.332031 20.464844 Z M 8.832031 -11.039062 C 5.886719 -8.460938 3.449219 -5.378906 0.644531 -2.667969 C 0.09375 -2.160156 -0.414062 -1.65625 -1.195312 -1.195312 C -1.332031 -1.929688 -1.058594 -2.390625 -0.828125 -2.898438 C 0.230469 -5.335938 1.886719 -7.359375 3.863281 -9.152344 C 4.921875 -10.210938 6.117188 -11.082031 7.496094 -11.679688 C 7.816406 -11.820312 8.140625 -11.957031 8.507812 -11.957031 C 8.785156 -11.910156 9.015625 -11.773438 9.105469 -11.542969 C 9.242188 -11.265625 9.015625 -11.175781 8.832031 -11.039062 Z M -14.304688 39.734375 C -16.140625 42.355469 -18.257812 44.703125 -20.832031 46.585938 C -23.039062 48.242188 -25.523438 49.253906 -28.328125 49.394531 C -30.167969 49.4375 -31.871094 49.023438 -33.433594 48.105469 C -34.953125 47.1875 -35.78125 45.714844 -36.46875 44.195312 C -37.4375 42.171875 -37.894531 40.011719 -37.804688 37.851562 C -37.757812 32.378906 -35.6875 27.777344 -32.285156 23.640625 C -27.871094 18.304688 -22.351562 14.53125 -16.097656 11.773438 C -11.820312 9.84375 -7.359375 8.507812 -2.621094 8.417969 C -1.65625 8.371094 -0.734375 8.371094 0.183594 8.460938 C 0.78125 8.507812 0.875 8.644531 0.644531 9.199219 C 0.277344 10.070312 -0.09375 10.898438 -0.460938 11.773438 C -2.390625 16.234375 -4.277344 20.742188 -6.253906 25.15625 C -8.554688 30.214844 -11.128906 35.183594 -14.304688 39.734375 Z M -14.304688 39.734375 "/></g></g></g><g fill="#cf7a61" fill-opacity="1"><g transform="translate(199.057971, 254.563181)"><g><path d="M 3.679688 -11.082031 C 3.082031 -11.589844 2.574219 -11.589844 1.976562 -11.039062 C 1.746094 -10.808594 1.519531 -10.578125 1.289062 -10.347656 C -1.519531 -6.578125 -3.726562 -2.574219 -4.183594 2.207031 C -4.367188 3.449219 -4.324219 4.691406 -4.046875 5.933594 C -3.816406 6.898438 -3.402344 7.863281 -2.757812 8.691406 C -1.472656 10.210938 -0.046875 10.394531 1.609375 9.335938 C 1.886719 9.152344 2.160156 8.875 2.4375 8.644531 C 4.78125 6.667969 6.851562 4.414062 8.96875 2.207031 C 11.542969 -0.507812 14.347656 -2.804688 17.753906 -4.460938 C 19.683594 -5.378906 21.523438 -6.394531 23.546875 -7.128906 C 23.730469 -7.175781 23.914062 -7.21875 23.867188 -7.449219 C 23.867188 -7.632812 23.683594 -7.726562 23.5 -7.726562 C 23.132812 -7.773438 22.855469 -7.632812 22.582031 -7.496094 C 21.523438 -7.035156 20.464844 -6.578125 19.453125 -6.070312 C 17.429688 -5.105469 15.316406 -4.230469 13.382812 -2.988281 C 10.578125 -1.289062 8.1875 0.964844 5.933594 3.355469 C 4.644531 4.644531 3.496094 6.070312 1.976562 7.082031 C 1.105469 7.679688 0.277344 8.277344 -0.828125 8.324219 C -1.65625 8.371094 -1.886719 8.1875 -2.070312 7.40625 C -2.300781 6.4375 -2.300781 5.472656 -2.207031 4.507812 C -1.839844 0.917969 -0.460938 -2.34375 1.378906 -5.425781 C 2.207031 -6.804688 3.082031 -8.046875 3.910156 -9.382812 C 4.324219 -10.070312 4.230469 -10.625 3.679688 -11.082031 Z M 5.792969 -13.335938 C 6.207031 -13.199219 6.484375 -13.476562 6.4375 -13.890625 C 6.4375 -14.578125 5.65625 -15.269531 4.875 -15.359375 C 4.460938 -15.40625 4.230469 -15.128906 4.367188 -14.71875 C 4.597656 -14.027344 5.152344 -13.566406 5.792969 -13.335938 Z M 5.792969 -13.335938 "/></g></g></g><g fill="#cf7a61" fill-opacity="1"><g transform="translate(222.280057, 254.563181)"><g><path d="M 35.78125 -7.773438 C 35.503906 -7.816406 35.226562 -7.679688 35 -7.542969 C 34.078125 -7.128906 33.203125 -6.667969 32.332031 -6.207031 C 30.125 -5.152344 27.960938 -3.957031 25.617188 -3.171875 C 23.777344 -2.53125 21.890625 -1.929688 19.914062 -1.929688 C 17.753906 -1.929688 16.140625 -2.851562 14.992188 -4.644531 C 14.808594 -4.96875 14.625 -5.335938 14.441406 -5.65625 C 14.117188 -6.347656 13.75 -6.945312 13.105469 -7.40625 C 12.1875 -8.140625 12.09375 -8.230469 11.3125 -7.40625 C 9.058594 -5.152344 6.851562 -2.851562 4.78125 -0.367188 C 2.621094 2.253906 0.550781 4.921875 -1.746094 7.40625 C -2.070312 7.726562 -2.34375 8.046875 -2.757812 8.324219 C -2.988281 7.863281 -2.851562 7.449219 -2.804688 7.082031 C -2.484375 5.472656 -1.976562 3.957031 -1.425781 2.390625 C -0.183594 -1.148438 1.65625 -4.414062 3.726562 -7.542969 C 4 -8.003906 4.324219 -8.417969 4.554688 -8.875 C 4.921875 -9.472656 4.875 -9.65625 4.324219 -10.070312 C 3.496094 -10.761719 2.574219 -10.714844 1.703125 -10.027344 C 1.058594 -9.472656 0.550781 -8.785156 0.09375 -8.09375 C -2.207031 -4.828125 -3.585938 -1.195312 -4.597656 2.621094 C -4.96875 4.09375 -5.105469 5.65625 -5.058594 7.175781 C -5.058594 7.632812 -5.011719 8.09375 -4.875 8.554688 C -4.460938 10.027344 -2.4375 10.578125 -1.5625 9.472656 C -1.105469 8.785156 -0.460938 8.277344 0.046875 7.632812 C 2.757812 4.414062 5.335938 1.105469 8.09375 -2.070312 C 9.289062 -3.402344 10.53125 -4.738281 11.773438 -6.070312 C 12.234375 -6.578125 12.324219 -6.578125 12.648438 -5.886719 C 12.785156 -5.566406 12.96875 -5.195312 13.199219 -4.875 C 15.316406 -1.886719 18.210938 -0.691406 21.800781 -1.195312 C 24.191406 -1.519531 26.398438 -2.4375 28.558594 -3.449219 C 30.8125 -4.460938 32.976562 -5.609375 35.183594 -6.714844 C 35.457031 -6.851562 35.734375 -7.035156 36.011719 -7.175781 C 36.101562 -7.265625 36.238281 -7.359375 36.195312 -7.542969 C 36.148438 -7.726562 35.964844 -7.773438 35.78125 -7.773438 Z M 35.78125 -7.773438 "/></g></g></g><g fill="#cf7a61" fill-opacity="1"><g transform="translate(257.182166, 254.563181)"><g><path d="M 8.832031 1.886719 C 13.152344 0.277344 22.074219 -6.53125 30.675781 -7.679688 C 30.398438 -8.277344 29.984375 -8.277344 29.617188 -8.277344 C 22.121094 -7.449219 12.28125 -0.964844 9.382812 0.414062 C 8.09375 1.011719 6.761719 1.425781 5.289062 1.5625 C 4.230469 1.65625 3.265625 1.425781 2.53125 0.550781 C 0.78125 -1.703125 0.644531 -4.046875 1.792969 -6.578125 C 2.023438 -7.082031 2.300781 -7.359375 2.945312 -7.175781 C 3.816406 -6.945312 4.691406 -6.992188 5.566406 -7.265625 C 7.359375 -7.863281 8.832031 -8.96875 10.164062 -10.253906 C 10.394531 -10.484375 10.53125 -10.714844 10.667969 -10.992188 C 11.039062 -11.726562 10.898438 -12.464844 10.210938 -12.96875 C 9.105469 -13.75 7.910156 -14.210938 6.578125 -13.796875 C 3.128906 -12.785156 0.507812 -10.761719 -0.78125 -7.3125 C -1.5625 -5.195312 -1.332031 -3.171875 -0.230469 -1.332031 C 2.023438 2.34375 4.691406 3.449219 8.832031 1.886719 Z M 8.738281 -12.050781 C 8.1875 -10.347656 5.195312 -8.460938 3.355469 -8.644531 C 4.09375 -10.253906 7.082031 -12.140625 8.738281 -12.050781 Z M 8.738281 -12.050781 "/></g></g></g><g fill="#cf7a61" fill-opacity="1"><g transform="translate(287.163945, 254.563181)"><g><path d="M -3.355469 14.578125 C -2.253906 14.671875 0 13.703125 0.917969 12.738281 C 1.058594 12.601562 1.378906 12.417969 1.148438 12.1875 C 0.917969 11.910156 0.644531 12.050781 0.460938 12.234375 C -0.277344 12.878906 -1.105469 13.292969 -1.976562 13.660156 C -4.140625 14.625 -5.378906 13.796875 -5.335938 11.40625 C -5.335938 9.796875 -4.78125 8.277344 -4.09375 6.804688 C -2.714844 3.863281 -0.875 1.242188 0.875 -1.425781 C 1.472656 -2.390625 2.023438 -3.355469 2.34375 -4.460938 C 2.53125 -5.058594 2.757812 -5.839844 2.300781 -6.253906 C 1.332031 -7.21875 1.839844 -7.863281 2.621094 -8.554688 C 2.804688 -8.691406 2.898438 -8.96875 2.988281 -9.242188 C 3.082031 -9.519531 3.082031 -9.796875 2.851562 -9.980469 C 2.390625 -10.53125 1.792969 -10.808594 1.058594 -10.667969 C 0.183594 -10.484375 -0.460938 -9.980469 -0.691406 -9.058594 C -0.875 -8.324219 -0.644531 -7.542969 -0.046875 -7.128906 C 0.460938 -6.804688 0.507812 -6.4375 0.414062 -5.980469 C 0.320312 -5.105469 0 -4.324219 -0.460938 -3.585938 C -1.195312 -2.390625 -1.929688 -1.195312 -2.667969 -0.046875 C -4 2.023438 -5.242188 4.09375 -6.117188 6.347656 C -6.804688 8.277344 -7.082031 10.210938 -6.4375 12.234375 C -6.023438 13.519531 -4.691406 14.53125 -3.355469 14.578125 Z M -3.355469 14.578125 "/></g></g></g><g fill="#cf7a61" fill-opacity="1"><g transform="translate(299.349796, 254.563181)"><g><path d="M 5.425781 4.644531 C 5.289062 4.96875 5.011719 5.335938 5.335938 5.65625 C 5.65625 6.023438 6.070312 5.933594 6.53125 5.839844 C 6.851562 5.792969 7.082031 5.566406 7.265625 5.335938 C 8.003906 4.414062 8.738281 3.542969 9.105469 2.4375 C 9.242188 2.023438 9.519531 1.703125 9.796875 1.378906 C 12.050781 -0.78125 14.304688 -2.945312 16.878906 -4.78125 C 17.0625 -4.921875 17.382812 -5.011719 17.246094 -5.335938 C 17.109375 -5.609375 16.742188 -5.609375 16.464844 -5.519531 C 16.1875 -5.378906 15.914062 -5.242188 15.636719 -5.058594 C 14.625 -4.414062 13.660156 -3.679688 12.738281 -2.898438 C 11.773438 -2.070312 10.808594 -1.242188 9.75 -0.320312 C 8.738281 -2.300781 7.679688 -2.851562 5.566406 -2.621094 C 5.242188 -2.621094 4.921875 -2.53125 4.597656 -2.484375 C 4.046875 -2.300781 3.542969 -2.160156 2.988281 -1.976562 C 2.207031 -1.746094 1.425781 -1.472656 0.644531 -1.242188 C 0 -1.105469 -0.136719 -1.289062 -0.183594 -1.886719 C -0.183594 -2.484375 -0.046875 -3.035156 0.136719 -3.542969 C 0.78125 -5.242188 1.5625 -6.851562 2.621094 -8.277344 C 3.585938 -9.566406 4.597656 -10.761719 6.117188 -11.496094 C 7.128906 -11.957031 7.589844 -11.820312 8.140625 -10.855469 C 8.460938 -10.210938 8.507812 -9.519531 8.417969 -8.785156 C 8.324219 -8.003906 8.785156 -7.589844 9.472656 -7.726562 C 9.933594 -7.816406 10.117188 -8.1875 10.164062 -8.554688 C 10.484375 -10.761719 9.980469 -12.371094 7.449219 -12.96875 C 5.980469 -13.292969 4.554688 -12.96875 3.265625 -12.234375 C 2.023438 -11.496094 1.011719 -10.484375 0.136719 -9.335938 C -1.148438 -7.542969 -2.117188 -5.609375 -2.757812 -3.542969 C -3.265625 -1.792969 -2.53125 -0.597656 -0.78125 -0.183594 C -0.691406 -0.183594 -0.550781 -0.183594 -0.460938 -0.136719 C 0.691406 0.09375 1.792969 -0.136719 2.898438 -0.507812 C 3.957031 -0.875 5.058594 -1.148438 6.207031 -1.425781 C 6.621094 -1.519531 6.945312 -1.378906 7.175781 -0.964844 C 7.816406 0.09375 7.679688 1.746094 6.761719 2.621094 C 6.117188 3.21875 5.703125 3.863281 5.425781 4.644531 Z M 5.425781 4.644531 "/></g></g></g></svg>