<svg xmlns="http://www.w3.org/2000/svg" xmlns:xlink="http://www.w3.org/1999/xlink" width="658" zoomAndPan="magnify" viewBox="0 0 493.5 440.25" height="587" preserveAspectRatio="xMidYMid meet" version="1.0"><defs><g/><clipPath id="deb4a02994"><path d="M 0.171875 0 L 492.832031 0 L 492.832031 439.5 L 0.171875 439.5 Z M 0.171875 0 " clip-rule="nonzero"/></clipPath><clipPath id="691c88594a"><path d="M 173 124 L 363 124 L 363 236.953125 L 173 236.953125 Z M 173 124 " clip-rule="nonzero"/></clipPath><clipPath id="d74b51b52f"><path d="M 144 95 L 393 95 L 393 236.953125 L 144 236.953125 Z M 144 95 " clip-rule="nonzero"/></clipPath><clipPath id="dd9886a342"><path d="M 126 80 L 412.996094 80 L 412.996094 236.953125 L 126 236.953125 Z M 126 80 " clip-rule="nonzero"/></clipPath><clipPath id="27dde8d0bb"><path d="M 194 145 L 339 145 L 339 236.953125 L 194 236.953125 Z M 194 145 " clip-rule="nonzero"/></clipPath></defs><g clip-path="url(#deb4a02994)"><path fill="#ffffff" d="M 0.171875 0 L 493.328125 0 L 493.328125 446.691406 L 0.171875 446.691406 Z M 0.171875 0 " fill-opacity="1" fill-rule="nonzero"/><path fill="#ffffff" d="M 0.171875 0 L 493.328125 0 L 493.328125 439.945312 L 0.171875 439.945312 Z M 0.171875 0 " fill-opacity="1" fill-rule="nonzero"/></g><g clip-path="url(#691c88594a)"><path fill="#006bb6" d="M 362.898438 233.78125 C 360.078125 233.824219 357.257812 233.867188 354.4375 233.910156 C 350.445312 214.34375 344.359375 195.097656 333.929688 177.96875 C 314.59375 146.21875 277.214844 119.25 239.996094 136.566406 C 202.546875 153.988281 188.578125 199.097656 182.375 236.589844 C 179.570312 236.617188 176.765625 236.652344 173.953125 236.679688 C 177.957031 211.757812 182.824219 186.335938 196.214844 164.582031 C 206.53125 147.816406 221.738281 133.46875 240.855469 127.515625 C 260.382812 121.4375 281.695312 125.09375 299.660156 134.191406 C 337.496094 153.34375 354.980469 194.148438 362.898438 233.78125 Z M 362.898438 233.78125 " fill-opacity="1" fill-rule="nonzero"/></g><g clip-path="url(#d74b51b52f)"><path fill="#00538d" d="M 392.28125 233.394531 C 387.496094 233.453125 382.695312 233.492188 377.917969 233.558594 C 375.65625 206.507812 367.742188 179.8125 352.199219 157.308594 C 324.910156 117.785156 272.246094 94.414062 226.210938 115.78125 C 180.011719 137.222656 168.023438 190.835938 160.625 236.8125 C 155.15625 236.855469 149.660156 236.867188 144.175781 236.898438 C 148.90625 206.867188 154.605469 176.292969 170.402344 149.863281 C 183.28125 128.316406 207.363281 106.855469 231.703125 99.503906 C 256.253906 92.09375 292.765625 95.59375 315.878906 106.378906 C 363.921875 128.78125 388.066406 182.40625 392.28125 233.394531 Z M 392.28125 233.394531 " fill-opacity="1" fill-rule="nonzero"/></g><g clip-path="url(#dd9886a342)"><path fill="#00406e" d="M 412.53125 233.222656 C 409.742188 233.25 403.050781 233.28125 400.265625 233.308594 C 400.035156 202.683594 390.5 172.722656 373.484375 147.023438 C 338.078125 93.523438 274.359375 75.054688 218.078125 96.910156 C 190.726562 107.535156 167.894531 127.71875 154.550781 153.820312 C 141.445312 179.464844 137.214844 208.5 134.527344 236.9375 C 131.746094 236.949219 128.964844 236.964844 126.183594 236.972656 C 129.449219 202.5 134.980469 166.957031 154.359375 137.5625 C 171.089844 112.1875 197.359375 93.796875 226.457031 85.292969 C 256.152344 76.617188 288.0625 79.078125 316.507812 90.972656 C 373.710938 114.894531 412.082031 172.589844 412.53125 233.222656 Z M 412.53125 233.222656 " fill-opacity="1" fill-rule="nonzero"/></g><g clip-path="url(#27dde8d0bb)"><path fill="#0195ff" d="M 338.078125 233.921875 C 335.207031 233.972656 328.214844 234.023438 325.34375 234.074219 C 322.417969 216.773438 318.039062 199.511719 309.035156 184.648438 C 301.417969 172.058594 295.984375 164.933594 282.382812 160.53125 C 268.785156 156.128906 255.34375 158.929688 243.089844 166.238281 C 218.105469 181.144531 209.644531 207.089844 207.839844 236.300781 C 204.976562 236.34375 197.117188 236.382812 194.253906 236.421875 C 195.203125 218.664062 199.042969 200.980469 207.300781 185.441406 C 222.792969 156.273438 256.636719 136.515625 287.484375 149.664062 C 319.652344 163.371094 332.402344 200.03125 338.078125 233.921875 Z M 338.078125 233.921875 " fill-opacity="1" fill-rule="nonzero"/></g><g fill="#001f36" fill-opacity="1"><g transform="translate(75.540202, 296.367128)"><g><path d="M 40.945312 -91.019531 L 25.972656 -91.019531 L 25.972656 -88.5625 L 26.207031 -88.5625 C 27.023438 -88.5625 31.351562 -88.328125 31.46875 -83.414062 L 31.46875 -32.40625 L 12.753906 -90.785156 L 12.636719 -91.019531 L 0.351562 -90.785156 L 0.351562 -87.859375 L 0.703125 -87.859375 C 3.042969 -87.859375 4.445312 -87.390625 5.03125 -86.574219 C 5.5 -85.753906 5.734375 -84 5.734375 -81.308594 L 5.734375 -2.457031 L 0.351562 -2.457031 L 0.351562 0 L 15.089844 0 L 15.089844 -2.457031 L 10.0625 -2.457031 L 10.0625 -65.164062 L 30.300781 -3.042969 C 30.417969 -2.457031 30.652344 -1.988281 31.003906 -1.519531 C 31.585938 -0.585938 32.171875 0 32.992188 0 L 34.042969 0 C 34.628906 0 35.566406 -0.351562 35.566406 -1.871094 L 35.566406 -84.585938 C 35.683594 -86.105469 36.148438 -88.445312 38.257812 -88.5625 L 40.945312 -88.5625 Z M 40.945312 -91.019531 "/></g></g></g><g fill="#001f36" fill-opacity="1"><g transform="translate(119.175556, 296.367128)"><g><path d="M 31.351562 -15.675781 C 30.300781 -15.675781 29.949219 -15.558594 29.832031 -15.558594 L 29.597656 -15.441406 L 29.597656 -15.089844 C 29.480469 -14.625 29.363281 -14.15625 29.246094 -13.6875 C 29.128906 -13.21875 29.015625 -12.753906 28.898438 -12.285156 C 28.664062 -11.699219 28.546875 -11.230469 28.429688 -10.878906 C 27.609375 -8.890625 26.324219 -7.136719 24.335938 -5.617188 C 22.34375 -4.09375 19.539062 -3.394531 16.144531 -3.507812 C 14.507812 -3.742188 12.984375 -4.445312 11.699219 -5.617188 C 10.414062 -6.785156 9.828125 -8.304688 9.828125 -10.296875 L 9.828125 -23.515625 C 9.828125 -23.632812 9.828125 -23.632812 9.828125 -23.632812 L 9.828125 -25.738281 C 10.414062 -25.738281 10.878906 -25.738281 11.347656 -25.738281 C 15.207031 -25.738281 18.953125 -25.738281 22.695312 -25.972656 C 25.738281 -26.089844 28.664062 -26.789062 30.886719 -28.898438 C 33.925781 -31.703125 34.394531 -36.148438 33.808594 -40.128906 C 33.34375 -44.339844 31.9375 -48.316406 28.3125 -50.890625 C 27.023438 -51.828125 25.386719 -52.527344 23.515625 -53.230469 C 21.644531 -53.816406 19.304688 -54.167969 16.847656 -54.167969 L 16.144531 -54.167969 C 12.519531 -54.167969 9.359375 -53.464844 7.019531 -51.945312 C 5.382812 -51.007812 4.09375 -49.953125 3.160156 -48.785156 C 2.222656 -47.5 1.519531 -46.445312 1.054688 -45.390625 C 0.585938 -44.105469 0.234375 -42.820312 0 -41.414062 L 0 -14.507812 C 0 -13.6875 0 -12.867188 0.117188 -12.167969 C 0.234375 -11.582031 0.351562 -10.878906 0.46875 -10.296875 C 0.46875 -9.59375 0.585938 -9.125 0.9375 -8.773438 C 1.285156 -7.839844 1.753906 -6.902344 2.574219 -5.847656 C 3.277344 -4.914062 4.328125 -3.859375 5.5 -3.042969 C 6.667969 -2.105469 8.1875 -1.402344 9.945312 -0.820312 C 11.699219 -0.234375 13.804688 0.117188 16.378906 0.117188 L 16.964844 0.117188 C 20.238281 0.117188 23.164062 -0.703125 25.738281 -2.222656 C 28.195312 -3.742188 30.183594 -5.847656 31.46875 -8.65625 C 31.820312 -9.476562 32.054688 -10.179688 32.171875 -10.996094 C 32.40625 -11.816406 32.640625 -12.519531 32.875 -13.101562 C 32.875 -13.804688 32.992188 -14.507812 33.109375 -15.207031 L 33.226562 -15.558594 L 32.875 -15.558594 C 32.640625 -15.558594 32.289062 -15.558594 31.351562 -15.675781 Z M 9.828125 -46.328125 C 9.828125 -46.679688 9.945312 -47.03125 10.0625 -47.382812 C 10.296875 -48.785156 10.878906 -49.839844 11.816406 -50.65625 C 12.636719 -51.242188 13.570312 -51.710938 14.625 -51.945312 C 23.632812 -53.464844 27.84375 -41.179688 25.972656 -33.925781 C 25.503906 -31.9375 24.683594 -29.363281 22.460938 -28.78125 C 20.472656 -28.3125 18.367188 -28.195312 16.378906 -28.195312 C 14.507812 -28.3125 12.402344 -28.195312 10.644531 -29.015625 C 10.414062 -29.246094 10.0625 -29.363281 9.828125 -29.597656 Z M 9.828125 -46.328125 "/></g></g></g><g fill="#001f36" fill-opacity="1"><g transform="translate(156.14277, 296.367128)"><g><path d="M 51.242188 -52.996094 L 51.242188 -49.953125 L 51.710938 -49.953125 C 52.179688 -49.953125 52.878906 -49.953125 53.699219 -50.070312 C 54.402344 -50.1875 55.101562 -50.1875 55.804688 -50.070312 C 56.390625 -50.070312 56.859375 -49.839844 57.207031 -49.488281 C 57.558594 -49.253906 57.558594 -48.785156 57.207031 -48.082031 L 46.210938 -3.625 L 37.320312 -47.382812 C 37.085938 -48.199219 37.203125 -48.902344 37.671875 -49.371094 C 37.90625 -49.722656 38.722656 -50.070312 41.0625 -50.070312 L 41.414062 -50.070312 L 41.414062 -52.996094 L 23.867188 -52.996094 L 23.867188 -49.953125 L 24.21875 -49.953125 C 24.917969 -49.953125 25.621094 -49.953125 26.324219 -49.839844 C 26.789062 -49.839844 27.140625 -49.371094 27.257812 -48.902344 C 27.609375 -48.433594 27.84375 -47.847656 27.960938 -47.265625 C 28.195312 -46.679688 28.3125 -46.210938 28.3125 -45.625 C 28.429688 -45.042969 28.546875 -44.574219 28.664062 -43.988281 C 28.898438 -42.585938 29.246094 -41.0625 29.480469 -39.660156 C 29.597656 -39.542969 29.597656 -39.542969 29.597656 -39.425781 C 30.300781 -35.800781 31.121094 -31.820312 32.054688 -27.492188 L 26.089844 -3.394531 L 14.273438 -47.382812 C 14.15625 -48.199219 14.273438 -48.902344 14.625 -49.371094 C 14.976562 -49.722656 15.792969 -50.070312 18.015625 -50.070312 L 18.367188 -50.070312 L 18.367188 -52.996094 L 0.703125 -52.996094 L 0.703125 -49.953125 L 1.054688 -49.953125 C 1.988281 -49.953125 2.691406 -49.953125 3.277344 -49.839844 C 3.394531 -49.839844 3.976562 -49.605469 4.796875 -47.730469 C 4.796875 -47.613281 4.914062 -47.5 4.914062 -47.382812 C 4.914062 -47.382812 5.03125 -47.382812 5.03125 -47.148438 C 5.03125 -46.210938 5.382812 -44.808594 5.964844 -42.9375 C 6.433594 -41.179688 7.019531 -39.074219 7.605469 -36.617188 C 8.1875 -34.277344 8.890625 -31.703125 9.710938 -29.015625 C 10.414062 -26.324219 11.113281 -23.515625 11.816406 -20.824219 C 13.453125 -14.507812 15.324219 -7.605469 17.429688 -0.234375 L 17.429688 0 L 29.363281 0 L 29.480469 -0.234375 C 30.066406 -2.105469 30.535156 -3.976562 31.003906 -6.082031 C 31.46875 -7.957031 31.9375 -9.945312 32.523438 -12.285156 C 32.992188 -14.039062 33.460938 -16.027344 33.925781 -18.015625 C 34.277344 -16.027344 34.746094 -14.15625 35.097656 -12.285156 C 35.566406 -9.945312 35.917969 -7.957031 36.265625 -6.082031 C 36.734375 -3.976562 37.203125 -1.988281 37.4375 -0.234375 L 37.554688 0 L 50.1875 0 L 50.1875 -0.234375 C 52.0625 -8.1875 53.699219 -15.441406 55.335938 -21.996094 C 55.921875 -24.683594 56.625 -27.492188 57.324219 -30.300781 C 57.910156 -33.109375 58.496094 -35.683594 59.082031 -38.023438 C 59.664062 -40.246094 60.132812 -42.351562 60.601562 -43.988281 C 61.070312 -45.625 61.421875 -46.796875 61.535156 -47.382812 C 62.355469 -49.019531 63.175781 -49.839844 64.226562 -49.953125 C 65.398438 -50.070312 66.917969 -50.070312 68.789062 -50.070312 L 69.140625 -50.070312 L 69.140625 -52.996094 Z M 51.242188 -52.996094 "/></g></g></g><g fill="#001f36" fill-opacity="1"><g transform="translate(228.439416, 296.367128)"><g/></g></g><g fill="#001f36" fill-opacity="1"><g transform="translate(254.52703, 296.367128)"><g><path d="M 42.820312 -88.09375 L 42.820312 -90.433594 L 23.984375 -90.433594 L 23.984375 -88.09375 L 28.429688 -88.09375 L 28.429688 -48.316406 L 14.625 -48.316406 L 14.625 -88.09375 L 18.835938 -88.09375 L 18.835938 -90.433594 L 0 -90.433594 L 0 -88.09375 L 4.445312 -88.09375 L 4.445312 -2.457031 L 0 -2.457031 L 0 -0.117188 L 18.835938 -0.117188 L 18.835938 -2.457031 L 14.625 -2.457031 L 14.625 -45.042969 L 28.429688 -45.042969 L 28.429688 -2.222656 L 23.984375 -2.222656 L 23.984375 -0.117188 L 42.820312 -0.117188 L 42.820312 -2.222656 L 38.605469 -2.222656 L 38.605469 -88.09375 Z M 42.820312 -88.09375 "/></g></g></g><g fill="#001f36" fill-opacity="1"><g transform="translate(301.437952, 296.367128)"><g><path d="M 32.757812 -45.160156 C 32.40625 -46.09375 31.820312 -47.148438 31.121094 -48.199219 C 30.535156 -49.253906 29.480469 -50.1875 28.3125 -51.125 C 27.023438 -51.945312 25.503906 -52.761719 23.75 -53.230469 C 21.996094 -53.816406 19.769531 -54.167969 17.316406 -54.167969 L 16.730469 -54.167969 C 13.101562 -54.167969 10.0625 -53.347656 7.605469 -51.828125 C 5.964844 -51.007812 4.679688 -49.839844 3.742188 -48.667969 C 2.808594 -47.5 2.105469 -46.328125 1.636719 -45.273438 C 1.167969 -43.988281 0.820312 -42.703125 0.585938 -41.414062 L 0.585938 -11.699219 C 0.585938 -11.113281 0.9375 -10.179688 1.519531 -8.773438 C 1.871094 -7.839844 2.339844 -6.785156 3.042969 -5.847656 C 3.742188 -4.796875 4.679688 -3.859375 5.964844 -2.925781 C 7.136719 -2.105469 8.65625 -1.285156 10.414062 -0.703125 C 12.285156 -0.117188 14.390625 0.234375 16.964844 0.234375 L 17.664062 0.234375 C 21.175781 0.234375 24.21875 -0.585938 26.675781 -1.988281 C 28.3125 -2.925781 29.597656 -3.976562 30.535156 -5.148438 C 31.351562 -6.316406 32.054688 -7.488281 32.523438 -8.65625 C 32.992188 -9.828125 33.34375 -11.113281 33.578125 -12.519531 L 33.578125 -42.234375 C 33.578125 -43.167969 33.34375 -44.105469 32.757812 -45.160156 Z M 10.414062 -46.328125 C 10.414062 -46.5625 10.527344 -46.914062 10.644531 -47.265625 C 10.996094 -48.667969 11.582031 -49.722656 12.402344 -50.539062 C 13.21875 -51.242188 14.15625 -51.59375 15.089844 -51.828125 C 16.144531 -51.945312 16.964844 -52.0625 17.429688 -52.0625 C 18.015625 -52.0625 18.601562 -51.945312 19.304688 -51.710938 C 20.003906 -51.59375 20.824219 -51.125 21.644531 -50.421875 C 22.460938 -49.722656 22.929688 -49.019531 23.164062 -48.316406 C 23.398438 -47.730469 23.75 -47.03125 23.867188 -46.328125 C 23.984375 -45.160156 23.984375 -43.871094 23.984375 -42.703125 C 23.984375 -40.011719 23.984375 -37.4375 23.984375 -34.746094 C 23.984375 -31.46875 23.984375 -28.078125 23.984375 -24.800781 C 23.984375 -21.761719 23.984375 -18.601562 23.984375 -15.558594 C 23.984375 -13.804688 23.984375 -12.050781 23.867188 -10.414062 C 23.867188 -8.890625 24.101562 -7.019531 23.515625 -5.5 C 23.164062 -4.679688 22.695312 -3.976562 21.996094 -3.394531 C 21.058594 -2.691406 20.121094 -2.222656 19.070312 -2.105469 C 18.132812 -1.871094 17.316406 -1.871094 16.730469 -1.871094 C 13.453125 -1.871094 10.644531 -4.679688 10.414062 -7.957031 C 10.414062 -9.242188 10.414062 -10.527344 10.414062 -11.816406 C 10.414062 -16.496094 10.414062 -21.058594 10.414062 -25.738281 C 10.414062 -30.535156 10.414062 -35.449219 10.414062 -40.246094 C 10.414062 -42.234375 10.414062 -44.222656 10.414062 -46.328125 Z M 10.414062 -46.328125 "/></g></g></g><g fill="#001f36" fill-opacity="1"><g transform="translate(339.107075, 296.367128)"><g><path d="M 38.488281 -40.828125 C 38.371094 -42.117188 38.140625 -43.402344 37.671875 -44.808594 C 37.203125 -45.742188 36.5 -46.914062 35.566406 -48.082031 C 34.628906 -49.371094 33.34375 -50.421875 31.703125 -51.359375 C 30.535156 -51.945312 29.246094 -52.527344 27.84375 -52.878906 C 26.441406 -53.347656 24.683594 -53.582031 22.695312 -53.582031 L 21.996094 -53.582031 C 20.355469 -53.582031 18.953125 -53.230469 17.78125 -52.761719 C 16.847656 -52.292969 16.144531 -51.710938 15.441406 -51.125 L 15.441406 -51.359375 C 15.441406 -52.0625 15.089844 -52.644531 14.625 -53.230469 C 14.039062 -53.816406 13.21875 -53.699219 12.167969 -52.996094 C 10.296875 -51.710938 8.65625 -50.65625 7.253906 -49.839844 C 5.964844 -49.019531 4.914062 -48.316406 4.210938 -47.964844 C 3.277344 -47.382812 2.574219 -46.914062 1.988281 -46.5625 L 1.753906 -46.445312 L 1.753906 -44.691406 L 2.925781 -44.691406 C 3.625 -44.691406 3.976562 -44.574219 4.09375 -44.574219 C 4.679688 -44.457031 5.03125 -44.105469 5.265625 -43.636719 C 5.265625 -43.519531 5.265625 -43.402344 5.265625 -43.285156 L 5.148438 -43.167969 L 5.148438 -33.691406 C 5.148438 -36.265625 5.148438 -38.722656 5.148438 -41.296875 C 5.148438 -38.140625 5.148438 -34.980469 5.148438 -31.703125 C 5.148438 -31.820312 5.148438 -31.9375 5.148438 -32.054688 L 5.148438 -5.382812 C 5.148438 -4.5625 5.148438 -3.859375 5.148438 -3.160156 C 4.914062 8.304688 3.742188 20.121094 -0.351562 31.003906 C -1.519531 34.277344 -3.160156 39.308594 -5.734375 41.765625 C -6.316406 42.820312 -7.019531 43.753906 -7.722656 44.691406 C -6.902344 43.636719 -3.625 43.519531 -2.457031 42.703125 C -0.585938 41.53125 1.167969 40.011719 2.808594 38.257812 C 7.957031 32.640625 11.816406 24.566406 13.101562 15.675781 C 14.039062 9.828125 14.507812 4.09375 14.859375 -1.753906 C 15.089844 -1.871094 15.324219 -1.871094 15.558594 -1.871094 L 15.558594 -1.753906 C 16.144531 -1.054688 16.964844 -0.46875 17.78125 0 C 18.953125 0.585938 20.238281 0.9375 21.644531 0.9375 L 22.34375 0.9375 C 24.917969 0.9375 27.023438 0.585938 28.898438 0 C 30.652344 -0.585938 32.171875 -1.402344 33.34375 -2.222656 C 34.628906 -3.160156 35.566406 -4.09375 36.265625 -5.148438 C 36.96875 -6.199219 37.4375 -7.253906 37.789062 -8.1875 C 38.257812 -9.242188 38.488281 -10.179688 38.488281 -10.996094 Z M 28.898438 -6.785156 C 28.78125 -6.316406 28.546875 -5.734375 28.3125 -4.914062 C 27.960938 -4.210938 27.492188 -3.507812 26.789062 -2.808594 C 25.855469 -2.105469 25.152344 -1.753906 24.449219 -1.519531 C 23.75 -1.402344 23.046875 -1.285156 22.578125 -1.285156 C 21.996094 -1.285156 21.175781 -1.285156 20.238281 -1.519531 C 19.304688 -1.636719 18.367188 -1.988281 17.546875 -2.691406 C 16.496094 -3.625 15.910156 -4.679688 15.558594 -5.847656 L 15.558594 -45.042969 L 15.441406 -45.042969 C 15.441406 -45.160156 15.441406 -45.273438 15.441406 -45.390625 C 15.558594 -45.507812 15.558594 -45.742188 15.558594 -46.09375 C 15.675781 -46.5625 15.910156 -47.03125 16.261719 -47.730469 C 16.496094 -48.433594 17.082031 -49.136719 17.664062 -49.839844 C 18.484375 -50.539062 19.304688 -51.007812 20.003906 -51.125 C 20.707031 -51.359375 21.292969 -51.359375 21.878906 -51.359375 C 22.460938 -51.359375 23.164062 -51.359375 24.21875 -51.242188 C 25.152344 -51.007812 26.089844 -50.65625 26.90625 -49.953125 C 27.726562 -49.253906 28.3125 -48.082031 28.664062 -46.679688 C 28.78125 -46.328125 28.898438 -46.09375 28.898438 -45.742188 L 28.898438 -8.539062 C 28.898438 -8.421875 28.898438 -8.304688 29.015625 -8.1875 C 29.015625 -8.074219 29.015625 -8.074219 29.015625 -8.074219 C 29.015625 -7.488281 29.015625 -7.136719 28.898438 -6.785156 Z M 28.898438 -6.785156 "/></g></g></g><g fill="#001f36" fill-opacity="1"><g transform="translate(380.987659, 296.367128)"><g><path d="M 31.351562 -15.675781 C 30.300781 -15.675781 29.949219 -15.558594 29.832031 -15.558594 L 29.597656 -15.441406 L 29.597656 -15.089844 C 29.480469 -14.625 29.363281 -14.15625 29.246094 -13.6875 C 29.128906 -13.21875 29.015625 -12.753906 28.898438 -12.285156 C 28.664062 -11.699219 28.546875 -11.230469 28.429688 -10.878906 C 27.609375 -8.890625 26.324219 -7.136719 24.335938 -5.617188 C 22.34375 -4.09375 19.539062 -3.394531 16.144531 -3.507812 C 14.507812 -3.742188 12.984375 -4.445312 11.699219 -5.617188 C 10.414062 -6.785156 9.828125 -8.304688 9.828125 -10.296875 L 9.828125 -23.515625 C 9.828125 -23.632812 9.828125 -23.632812 9.828125 -23.632812 L 9.828125 -25.738281 C 10.414062 -25.738281 10.878906 -25.738281 11.347656 -25.738281 C 15.207031 -25.738281 18.953125 -25.738281 22.695312 -25.972656 C 25.738281 -26.089844 28.664062 -26.789062 30.886719 -28.898438 C 33.925781 -31.703125 34.394531 -36.148438 33.808594 -40.128906 C 33.34375 -44.339844 31.9375 -48.316406 28.3125 -50.890625 C 27.023438 -51.828125 25.386719 -52.527344 23.515625 -53.230469 C 21.644531 -53.816406 19.304688 -54.167969 16.847656 -54.167969 L 16.144531 -54.167969 C 12.519531 -54.167969 9.359375 -53.464844 7.019531 -51.945312 C 5.382812 -51.007812 4.09375 -49.953125 3.160156 -48.785156 C 2.222656 -47.5 1.519531 -46.445312 1.054688 -45.390625 C 0.585938 -44.105469 0.234375 -42.820312 0 -41.414062 L 0 -14.507812 C 0 -13.6875 0 -12.867188 0.117188 -12.167969 C 0.234375 -11.582031 0.351562 -10.878906 0.46875 -10.296875 C 0.46875 -9.59375 0.585938 -9.125 0.9375 -8.773438 C 1.285156 -7.839844 1.753906 -6.902344 2.574219 -5.847656 C 3.277344 -4.914062 4.328125 -3.859375 5.5 -3.042969 C 6.667969 -2.105469 8.1875 -1.402344 9.945312 -0.820312 C 11.699219 -0.234375 13.804688 0.117188 16.378906 0.117188 L 16.964844 0.117188 C 20.238281 0.117188 23.164062 -0.703125 25.738281 -2.222656 C 28.195312 -3.742188 30.183594 -5.847656 31.46875 -8.65625 C 31.820312 -9.476562 32.054688 -10.179688 32.171875 -10.996094 C 32.40625 -11.816406 32.640625 -12.519531 32.875 -13.101562 C 32.875 -13.804688 32.992188 -14.507812 33.109375 -15.207031 L 33.226562 -15.558594 L 32.875 -15.558594 C 32.640625 -15.558594 32.289062 -15.558594 31.351562 -15.675781 Z M 9.828125 -46.328125 C 9.828125 -46.679688 9.945312 -47.03125 10.0625 -47.382812 C 10.296875 -48.785156 10.878906 -49.839844 11.816406 -50.65625 C 12.636719 -51.242188 13.570312 -51.710938 14.625 -51.945312 C 23.632812 -53.464844 27.84375 -41.179688 25.972656 -33.925781 C 25.503906 -31.9375 24.683594 -29.363281 22.460938 -28.78125 C 20.472656 -28.3125 18.367188 -28.195312 16.378906 -28.195312 C 14.507812 -28.3125 12.402344 -28.195312 10.644531 -29.015625 C 10.414062 -29.246094 10.0625 -29.363281 9.828125 -29.597656 Z M 9.828125 -46.328125 "/></g></g></g><g fill="#cf7a61" fill-opacity="1"><g transform="translate(117.179463, 348.006563)"><g><path d="M 2.941406 16.453125 C 4.824219 19.117188 8.226562 20.269531 11.351562 19.257812 C 20.589844 16.359375 30.378906 -1.195312 41.132812 -0.460938 C 41.453125 -0.503906 41.453125 -0.6875 41.222656 -0.875 C 40.996094 -1.058594 40.71875 -1.101562 40.441406 -1.148438 C 30.148438 -1.792969 18.199219 16.40625 9.144531 18.335938 C 7.214844 18.703125 5.882812 18.152344 4.824219 16.546875 C 4.136719 15.535156 3.585938 14.429688 3.261719 13.234375 C 2.621094 10.984375 2.480469 8.640625 2.4375 5.5625 C 2.480469 1.792969 3.261719 -2.621094 4.597656 -6.941406 C 7.03125 -14.753906 10.753906 -21.96875 15.027344 -28.90625 C 18.613281 -34.746094 22.65625 -40.214844 27.851562 -44.71875 C 30.378906 -46.921875 33.089844 -48.898438 36.214844 -50.09375 C 40.351562 -51.703125 43.0625 -50.371094 44.394531 -46.1875 C 45.359375 -43.015625 45.175781 -39.890625 44.121094 -36.859375 C 41.222656 -28.632812 35.9375 -22.335938 28.171875 -18.246094 C 26.703125 -17.417969 25.09375 -17.003906 23.394531 -16.820312 C 22.472656 -16.730469 21.832031 -17.140625 21.324219 -17.832031 C 21.1875 -18.015625 21.050781 -18.246094 20.957031 -18.429688 C 20.636719 -18.84375 20.175781 -19.257812 19.714844 -18.980469 C 19.210938 -18.613281 19.625 -18.0625 19.898438 -17.695312 C 20.910156 -16.359375 22.242188 -15.625 23.898438 -15.578125 C 26.058594 -15.535156 28.035156 -16.132812 29.871094 -17.140625 C 36.8125 -20.910156 41.914062 -26.472656 45.316406 -33.59375 C 46.921875 -36.949219 47.703125 -40.535156 46.96875 -44.351562 C 46.1875 -48.300781 44.074219 -51.015625 39.9375 -51.886719 C 37.273438 -52.4375 34.882812 -51.703125 32.539062 -50.460938 C 28.125 -48.117188 24.402344 -44.808594 21.234375 -40.996094 C 13.832031 -32.125 8.089844 -22.242188 3.859375 -11.488281 C 1.242188 -4.871094 -0.183594 1.976562 0.503906 9.191406 C 0.734375 11.8125 1.425781 14.292969 2.941406 16.453125 Z M 2.941406 16.453125 "/></g></g></g><g fill="#cf7a61" fill-opacity="1"><g transform="translate(164.005194, 348.006563)"><g><path d="M 3.21875 -1.46875 C 3.308594 -0.503906 3.445312 0.460938 3.90625 1.332031 C 5.46875 4.273438 8.59375 4.917969 11.214844 3.816406 C 16.5 1.5625 26.425781 -7.125 32.125 -7.8125 C 32.078125 -7.996094 32.078125 -8.089844 32.03125 -8.132812 C 30.46875 -9.882812 16.359375 -0.183594 11.71875 2.066406 C 10.523438 2.664062 9.328125 3.171875 7.949219 3.171875 C 7.261719 3.125 6.800781 2.847656 6.527344 2.207031 C 6.25 1.5625 6.113281 0.875 6.113281 0.136719 C 6.066406 -1.515625 6.386719 -3.078125 7.03125 -4.640625 C 7.539062 -5.929688 8.320312 -7.078125 9.007812 -8.273438 C 9.511719 -9.238281 9.421875 -9.558594 8.457031 -10.019531 C 8.179688 -10.15625 7.90625 -10.339844 7.628906 -10.25 C 7.125 -10.066406 6.847656 -10.339844 6.480469 -10.570312 C 5.101562 -11.351562 3.722656 -11.535156 2.34375 -10.664062 C -0.964844 -8.59375 -2.480469 -5.46875 -2.390625 -1.65625 C -2.390625 -0.367188 -0.917969 0.367188 0.277344 -0.183594 C 0.734375 -0.414062 1.148438 -0.734375 1.46875 -1.101562 C 1.976562 -1.5625 2.480469 -2.066406 3.035156 -2.621094 C 3.21875 -2.160156 3.171875 -1.792969 3.21875 -1.46875 Z M 0.644531 -2.023438 C 0.320312 -1.746094 -0.046875 -1.515625 -0.550781 -1.148438 C -0.550781 -2.160156 -0.367188 -2.894531 -0.09375 -3.539062 C 0.734375 -5.652344 1.929688 -7.445312 3.675781 -8.914062 C 4 -9.191406 4.410156 -9.375 4.78125 -9.605469 C 5.007812 -9.742188 5.332031 -9.789062 5.515625 -9.46875 C 5.699219 -9.191406 5.882812 -8.960938 5.652344 -8.59375 C 4.183594 -6.25 2.757812 -3.859375 0.644531 -2.023438 Z M 0.644531 -2.023438 "/></g></g></g><g fill="#cf7a61" fill-opacity="1"><g transform="translate(195.023221, 348.006563)"><g><path d="M -3.355469 14.570312 C -2.253906 14.660156 0 13.695312 0.917969 12.730469 C 1.058594 12.59375 1.378906 12.410156 1.148438 12.179688 C 0.917969 11.902344 0.644531 12.042969 0.460938 12.226562 C -0.277344 12.867188 -1.101562 13.28125 -1.976562 13.648438 C -4.136719 14.613281 -5.378906 13.789062 -5.332031 11.398438 C -5.332031 9.789062 -4.78125 8.273438 -4.089844 6.800781 C -2.710938 3.859375 -0.875 1.242188 0.875 -1.425781 C 1.46875 -2.390625 2.023438 -3.355469 2.34375 -4.457031 C 2.527344 -5.054688 2.757812 -5.835938 2.296875 -6.25 C 1.332031 -7.214844 1.839844 -7.859375 2.621094 -8.546875 C 2.804688 -8.6875 2.894531 -8.960938 2.988281 -9.238281 C 3.078125 -9.511719 3.078125 -9.789062 2.847656 -9.972656 C 2.390625 -10.523438 1.792969 -10.800781 1.058594 -10.664062 C 0.183594 -10.476562 -0.460938 -9.972656 -0.6875 -9.054688 C -0.875 -8.320312 -0.644531 -7.539062 -0.046875 -7.125 C 0.460938 -6.800781 0.503906 -6.433594 0.414062 -5.972656 C 0.320312 -5.101562 0 -4.320312 -0.460938 -3.585938 C -1.195312 -2.390625 -1.929688 -1.195312 -2.664062 -0.046875 C -4 2.023438 -5.238281 4.089844 -6.113281 6.34375 C -6.800781 8.273438 -7.078125 10.203125 -6.433594 12.226562 C -6.019531 13.511719 -4.6875 14.523438 -3.355469 14.570312 Z M -3.355469 14.570312 "/></g></g></g><g fill="#cf7a61" fill-opacity="1"><g transform="translate(207.200673, 348.006563)"><g><path d="M 8.824219 1.882812 C 13.144531 0.277344 22.058594 -6.527344 30.652344 -7.675781 C 30.378906 -8.273438 29.964844 -8.273438 29.597656 -8.273438 C 22.105469 -7.445312 12.269531 -0.964844 9.375 0.414062 C 8.089844 1.011719 6.757812 1.425781 5.285156 1.5625 C 4.226562 1.65625 3.261719 1.425781 2.527344 0.550781 C 0.78125 -1.699219 0.644531 -4.042969 1.792969 -6.570312 C 2.023438 -7.078125 2.296875 -7.351562 2.941406 -7.167969 C 3.816406 -6.941406 4.6875 -6.984375 5.5625 -7.261719 C 7.351562 -7.859375 8.824219 -8.960938 10.15625 -10.25 C 10.386719 -10.476562 10.523438 -10.707031 10.664062 -10.984375 C 11.03125 -11.71875 10.890625 -12.453125 10.203125 -12.960938 C 9.101562 -13.742188 7.90625 -14.199219 6.570312 -13.789062 C 3.125 -12.777344 0.503906 -10.753906 -0.78125 -7.308594 C -1.5625 -5.191406 -1.332031 -3.171875 -0.230469 -1.332031 C 2.023438 2.34375 4.6875 3.445312 8.824219 1.882812 Z M 8.730469 -12.042969 C 8.179688 -10.339844 5.191406 -8.457031 3.355469 -8.640625 C 4.089844 -10.25 7.078125 -12.132812 8.730469 -12.042969 Z M 8.730469 -12.042969 "/></g></g></g><g fill="#cf7a61" fill-opacity="1"><g transform="translate(237.161789, 348.006563)"><g><path d="M -1.332031 20.453125 C 0.230469 16.820312 1.792969 13.191406 3.308594 9.558594 C 3.539062 8.960938 3.816406 8.777344 4.410156 8.914062 C 5.835938 9.238281 7.214844 9.46875 8.640625 9.695312 C 9.46875 9.835938 10.292969 9.925781 11.167969 10.019531 C 11.351562 10.019531 11.628906 10.066406 11.671875 9.789062 C 11.765625 9.558594 11.488281 9.46875 11.351562 9.328125 C 11.261719 9.285156 11.214844 9.238281 11.167969 9.238281 C 9.421875 8.59375 7.675781 7.90625 5.835938 7.722656 C 4.136719 7.492188 4.042969 7.675781 4.871094 5.882812 C 6.386719 2.574219 7.996094 -0.734375 9.695312 -4 C 11.167969 -6.800781 12.777344 -9.511719 14.570312 -12.132812 C 14.890625 -12.636719 15.304688 -13.097656 15.671875 -13.605469 C 15.765625 -13.742188 15.902344 -13.925781 15.671875 -14.15625 C 15.210938 -14.570312 13.648438 -14.753906 13.097656 -14.386719 C 12.363281 -13.878906 11.671875 -13.375 10.984375 -12.777344 C 10.570312 -12.453125 10.292969 -12.363281 9.835938 -12.777344 C 8.640625 -13.648438 7.308594 -13.925781 5.882812 -13.464844 C 5.101562 -13.234375 4.367188 -12.914062 3.675781 -12.410156 C 1.195312 -10.664062 -0.734375 -8.410156 -2.160156 -5.699219 C -2.757812 -4.503906 -3.355469 -3.261719 -3.355469 -1.882812 C -3.402344 -0.230469 -1.792969 0.78125 -0.320312 0 C 0.09375 -0.230469 0.503906 -0.503906 0.875 -0.828125 C 2.847656 -2.664062 4.734375 -4.640625 6.617188 -6.570312 C 7.539062 -7.445312 8.363281 -8.320312 9.46875 -8.960938 C 9.421875 -8.363281 9.007812 -7.949219 8.730469 -7.445312 C 6.066406 -3.078125 3.859375 1.5625 1.839844 6.25 C 1.515625 7.078125 1.515625 7.078125 0.597656 6.984375 C -1.101562 6.847656 -2.804688 6.800781 -4.503906 6.941406 C -9.191406 7.351562 -13.605469 8.59375 -17.832031 10.570312 C -23.898438 13.417969 -29.277344 17.1875 -33.59375 22.382812 C -36.125 25.460938 -38.144531 28.769531 -38.972656 32.769531 C -39.707031 36.214844 -39.800781 39.570312 -38.605469 42.878906 C -37.871094 44.902344 -36.949219 46.832031 -35.066406 48.117188 C -31.207031 50.691406 -27.070312 51.105469 -22.75 49.40625 C -19.855469 48.300781 -17.464844 46.417969 -15.304688 44.210938 C -11.488281 40.398438 -8.777344 35.894531 -6.25 31.207031 C -4.367188 27.757812 -2.894531 24.035156 -1.332031 20.453125 Z M 8.824219 -11.03125 C 5.882812 -8.457031 3.445312 -5.378906 0.644531 -2.664062 C 0.09375 -2.160156 -0.414062 -1.65625 -1.195312 -1.195312 C -1.332031 -1.929688 -1.058594 -2.390625 -0.828125 -2.894531 C 0.230469 -5.332031 1.882812 -7.351562 3.859375 -9.144531 C 4.917969 -10.203125 6.113281 -11.074219 7.492188 -11.671875 C 7.8125 -11.8125 8.132812 -11.949219 8.503906 -11.949219 C 8.777344 -11.902344 9.007812 -11.765625 9.101562 -11.535156 C 9.238281 -11.261719 9.007812 -11.167969 8.824219 -11.03125 Z M -14.292969 39.707031 C -16.132812 42.328125 -18.246094 44.671875 -20.820312 46.554688 C -23.023438 48.210938 -25.507812 49.222656 -28.308594 49.359375 C -30.148438 49.40625 -31.847656 48.992188 -33.410156 48.074219 C -34.929688 47.152344 -35.753906 45.683594 -36.445312 44.164062 C -37.410156 42.144531 -37.871094 39.984375 -37.777344 37.824219 C -37.730469 32.355469 -35.664062 27.757812 -32.261719 23.621094 C -27.851562 18.292969 -22.335938 14.523438 -16.085938 11.765625 C -11.8125 9.835938 -7.351562 8.503906 -2.621094 8.410156 C -1.65625 8.363281 -0.734375 8.363281 0.183594 8.457031 C 0.78125 8.503906 0.875 8.640625 0.644531 9.191406 C 0.277344 10.066406 -0.09375 10.890625 -0.460938 11.765625 C -2.390625 16.222656 -4.273438 20.726562 -6.25 25.140625 C -8.546875 30.195312 -11.121094 35.15625 -14.292969 39.707031 Z M -14.292969 39.707031 "/></g></g></g><g fill="#cf7a61" fill-opacity="1"><g transform="translate(258.299999, 348.006563)"><g><path d="M 3.675781 -11.074219 C 3.078125 -11.582031 2.574219 -11.582031 1.976562 -11.03125 C 1.746094 -10.800781 1.515625 -10.570312 1.285156 -10.339844 C -1.515625 -6.570312 -3.722656 -2.574219 -4.183594 2.207031 C -4.367188 3.445312 -4.320312 4.6875 -4.042969 5.929688 C -3.816406 6.894531 -3.402344 7.859375 -2.757812 8.6875 C -1.46875 10.203125 -0.046875 10.386719 1.609375 9.328125 C 1.882812 9.144531 2.160156 8.871094 2.4375 8.640625 C 4.78125 6.664062 6.847656 4.410156 8.960938 2.207031 C 11.535156 -0.503906 14.339844 -2.804688 17.738281 -4.457031 C 19.671875 -5.378906 21.507812 -6.386719 23.53125 -7.125 C 23.714844 -7.167969 23.898438 -7.214844 23.851562 -7.445312 C 23.851562 -7.628906 23.667969 -7.722656 23.484375 -7.722656 C 23.117188 -7.765625 22.839844 -7.628906 22.566406 -7.492188 C 21.507812 -7.03125 20.453125 -6.570312 19.441406 -6.066406 C 17.417969 -5.101562 15.304688 -4.226562 13.375 -2.988281 C 10.570312 -1.285156 8.179688 0.964844 5.929688 3.355469 C 4.640625 4.640625 3.492188 6.066406 1.976562 7.078125 C 1.101562 7.675781 0.277344 8.273438 -0.828125 8.320312 C -1.65625 8.363281 -1.882812 8.179688 -2.066406 7.398438 C -2.296875 6.433594 -2.296875 5.46875 -2.207031 4.503906 C -1.839844 0.917969 -0.460938 -2.34375 1.378906 -5.421875 C 2.207031 -6.800781 3.078125 -8.042969 3.90625 -9.375 C 4.320312 -10.066406 4.226562 -10.617188 3.675781 -11.074219 Z M 5.789062 -13.328125 C 6.203125 -13.191406 6.480469 -13.464844 6.433594 -13.878906 C 6.433594 -14.570312 5.652344 -15.257812 4.871094 -15.351562 C 4.457031 -15.394531 4.226562 -15.121094 4.367188 -14.707031 C 4.597656 -14.015625 5.148438 -13.558594 5.789062 -13.328125 Z M 5.789062 -13.328125 "/></g></g></g><g fill="#cf7a61" fill-opacity="1"><g transform="translate(281.506081, 348.006563)"><g><path d="M 35.753906 -7.765625 C 35.480469 -7.8125 35.203125 -7.675781 34.972656 -7.539062 C 34.054688 -7.125 33.183594 -6.664062 32.308594 -6.203125 C 30.101562 -5.148438 27.941406 -3.953125 25.597656 -3.171875 C 23.761719 -2.527344 21.875 -1.929688 19.898438 -1.929688 C 17.738281 -1.929688 16.132812 -2.847656 14.980469 -4.640625 C 14.796875 -4.964844 14.613281 -5.332031 14.429688 -5.652344 C 14.109375 -6.34375 13.742188 -6.941406 13.097656 -7.398438 C 12.179688 -8.132812 12.085938 -8.226562 11.304688 -7.398438 C 9.054688 -5.148438 6.847656 -2.847656 4.78125 -0.367188 C 2.621094 2.253906 0.550781 4.917969 -1.746094 7.398438 C -2.066406 7.722656 -2.34375 8.042969 -2.757812 8.320312 C -2.988281 7.859375 -2.847656 7.445312 -2.804688 7.078125 C -2.480469 5.46875 -1.976562 3.953125 -1.425781 2.390625 C -0.183594 -1.148438 1.65625 -4.410156 3.722656 -7.539062 C 4 -7.996094 4.320312 -8.410156 4.550781 -8.871094 C 4.917969 -9.46875 4.871094 -9.652344 4.320312 -10.066406 C 3.492188 -10.753906 2.574219 -10.707031 1.699219 -10.019531 C 1.058594 -9.46875 0.550781 -8.777344 0.09375 -8.089844 C -2.207031 -4.824219 -3.585938 -1.195312 -4.597656 2.621094 C -4.964844 4.089844 -5.101562 5.652344 -5.054688 7.167969 C -5.054688 7.628906 -5.007812 8.089844 -4.871094 8.546875 C -4.457031 10.019531 -2.4375 10.570312 -1.5625 9.46875 C -1.101562 8.777344 -0.460938 8.273438 0.046875 7.628906 C 2.757812 4.410156 5.332031 1.101562 8.089844 -2.066406 C 9.285156 -3.402344 10.523438 -4.734375 11.765625 -6.066406 C 12.226562 -6.570312 12.316406 -6.570312 12.636719 -5.882812 C 12.777344 -5.5625 12.960938 -5.191406 13.191406 -4.871094 C 15.304688 -1.882812 18.199219 -0.6875 21.785156 -1.195312 C 24.175781 -1.515625 26.378906 -2.4375 28.539062 -3.445312 C 30.792969 -4.457031 32.953125 -5.605469 35.15625 -6.710938 C 35.433594 -6.847656 35.710938 -7.03125 35.984375 -7.167969 C 36.078125 -7.261719 36.214844 -7.351562 36.167969 -7.539062 C 36.125 -7.722656 35.9375 -7.765625 35.753906 -7.765625 Z M 35.753906 -7.765625 "/></g></g></g><g fill="#cf7a61" fill-opacity="1"><g transform="translate(316.384136, 348.006563)"><g><path d="M 8.824219 1.882812 C 13.144531 0.277344 22.058594 -6.527344 30.652344 -7.675781 C 30.378906 -8.273438 29.964844 -8.273438 29.597656 -8.273438 C 22.105469 -7.445312 12.269531 -0.964844 9.375 0.414062 C 8.089844 1.011719 6.757812 1.425781 5.285156 1.5625 C 4.226562 1.65625 3.261719 1.425781 2.527344 0.550781 C 0.78125 -1.699219 0.644531 -4.042969 1.792969 -6.570312 C 2.023438 -7.078125 2.296875 -7.351562 2.941406 -7.167969 C 3.816406 -6.941406 4.6875 -6.984375 5.5625 -7.261719 C 7.351562 -7.859375 8.824219 -8.960938 10.15625 -10.25 C 10.386719 -10.476562 10.523438 -10.707031 10.664062 -10.984375 C 11.03125 -11.71875 10.890625 -12.453125 10.203125 -12.960938 C 9.101562 -13.742188 7.90625 -14.199219 6.570312 -13.789062 C 3.125 -12.777344 0.503906 -10.753906 -0.78125 -7.308594 C -1.5625 -5.191406 -1.332031 -3.171875 -0.230469 -1.332031 C 2.023438 2.34375 4.6875 3.445312 8.824219 1.882812 Z M 8.730469 -12.042969 C 8.179688 -10.339844 5.191406 -8.457031 3.355469 -8.640625 C 4.089844 -10.25 7.078125 -12.132812 8.730469 -12.042969 Z M 8.730469 -12.042969 "/></g></g></g><g fill="#cf7a61" fill-opacity="1"><g transform="translate(346.345251, 348.006563)"><g><path d="M -3.355469 14.570312 C -2.253906 14.660156 0 13.695312 0.917969 12.730469 C 1.058594 12.59375 1.378906 12.410156 1.148438 12.179688 C 0.917969 11.902344 0.644531 12.042969 0.460938 12.226562 C -0.277344 12.867188 -1.101562 13.28125 -1.976562 13.648438 C -4.136719 14.613281 -5.378906 13.789062 -5.332031 11.398438 C -5.332031 9.789062 -4.78125 8.273438 -4.089844 6.800781 C -2.710938 3.859375 -0.875 1.242188 0.875 -1.425781 C 1.46875 -2.390625 2.023438 -3.355469 2.34375 -4.457031 C 2.527344 -5.054688 2.757812 -5.835938 2.296875 -6.25 C 1.332031 -7.214844 1.839844 -7.859375 2.621094 -8.546875 C 2.804688 -8.6875 2.894531 -8.960938 2.988281 -9.238281 C 3.078125 -9.511719 3.078125 -9.789062 2.847656 -9.972656 C 2.390625 -10.523438 1.792969 -10.800781 1.058594 -10.664062 C 0.183594 -10.476562 -0.460938 -9.972656 -0.6875 -9.054688 C -0.875 -8.320312 -0.644531 -7.539062 -0.046875 -7.125 C 0.460938 -6.800781 0.503906 -6.433594 0.414062 -5.972656 C 0.320312 -5.101562 0 -4.320312 -0.460938 -3.585938 C -1.195312 -2.390625 -1.929688 -1.195312 -2.664062 -0.046875 C -4 2.023438 -5.238281 4.089844 -6.113281 6.34375 C -6.800781 8.273438 -7.078125 10.203125 -6.433594 12.226562 C -6.019531 13.511719 -4.6875 14.523438 -3.355469 14.570312 Z M -3.355469 14.570312 "/></g></g></g><g fill="#cf7a61" fill-opacity="1"><g transform="translate(358.522704, 348.006563)"><g><path d="M 5.421875 4.640625 C 5.285156 4.964844 5.007812 5.332031 5.332031 5.652344 C 5.652344 6.019531 6.066406 5.929688 6.527344 5.835938 C 6.847656 5.789062 7.078125 5.5625 7.261719 5.332031 C 7.996094 4.410156 8.730469 3.539062 9.101562 2.4375 C 9.238281 2.023438 9.511719 1.699219 9.789062 1.378906 C 12.042969 -0.78125 14.292969 -2.941406 16.867188 -4.78125 C 17.050781 -4.917969 17.371094 -5.007812 17.234375 -5.332031 C 17.097656 -5.605469 16.730469 -5.605469 16.453125 -5.515625 C 16.175781 -5.378906 15.902344 -5.238281 15.625 -5.054688 C 14.613281 -4.410156 13.648438 -3.675781 12.730469 -2.894531 C 11.765625 -2.066406 10.800781 -1.242188 9.742188 -0.320312 C 8.730469 -2.296875 7.675781 -2.847656 5.5625 -2.621094 C 5.238281 -2.621094 4.917969 -2.527344 4.597656 -2.480469 C 4.042969 -2.296875 3.539062 -2.160156 2.988281 -1.976562 C 2.207031 -1.746094 1.425781 -1.46875 0.644531 -1.242188 C 0 -1.101562 -0.136719 -1.285156 -0.183594 -1.882812 C -0.183594 -2.480469 -0.046875 -3.035156 0.136719 -3.539062 C 0.78125 -5.238281 1.5625 -6.847656 2.621094 -8.273438 C 3.585938 -9.558594 4.597656 -10.753906 6.113281 -11.488281 C 7.125 -11.949219 7.582031 -11.8125 8.132812 -10.847656 C 8.457031 -10.203125 8.503906 -9.511719 8.410156 -8.777344 C 8.320312 -7.996094 8.777344 -7.582031 9.46875 -7.722656 C 9.925781 -7.8125 10.109375 -8.179688 10.15625 -8.546875 C 10.476562 -10.753906 9.972656 -12.363281 7.445312 -12.960938 C 5.972656 -13.28125 4.550781 -12.960938 3.261719 -12.226562 C 2.023438 -11.488281 1.011719 -10.476562 0.136719 -9.328125 C -1.148438 -7.539062 -2.113281 -5.605469 -2.757812 -3.539062 C -3.261719 -1.792969 -2.527344 -0.597656 -0.78125 -0.183594 C -0.6875 -0.183594 -0.550781 -0.183594 -0.460938 -0.136719 C 0.6875 0.09375 1.792969 -0.136719 2.894531 -0.503906 C 3.953125 -0.875 5.054688 -1.148438 6.203125 -1.425781 C 6.617188 -1.515625 6.941406 -1.378906 7.167969 -0.964844 C 7.8125 0.09375 7.675781 1.746094 6.757812 2.621094 C 6.113281 3.21875 5.699219 3.859375 5.421875 4.640625 Z M 5.421875 4.640625 "/></g></g></g></svg>